<svg id="Capa_1" data-name="Capa 1" xmlns="http://www.w3.org/2000/svg" viewBox="0 0 559.52 75.29"><defs><style>.cls-1{fill:#2866d9;}.cls-2{fill:#143668;}</style></defs><path class="cls-1" d="M79.31,1.69H63.22L43,50.27,22.79,1.69H6.7L0,73.89H16L19.8,30,37.85,73.06H48.16L66.21,30,70,73.89H86Z"/><path class="cls-1" d="M223.7,36.45c7.84-2.78,11.76-8.87,11.76-15.06,0-12.27-10.83-19.7-25.37-19.7L183,1.59v72.3h30.22c15.27,0,25.58-8,25.58-20.32C238.76,46.15,232.36,38.1,223.7,36.45ZM199,14.38h11.14c4.84,0,9.18,2.48,9.18,7.73,0,4.75-2.48,9.91-13.72,9.91H199ZM213.18,61.2H199V43.15h8.35c13.31,0,15.27,5.16,15.27,10.11S218.55,61.2,213.18,61.2Z"/><path class="cls-1" d="M251.24,1.69v72.2h16V1.69Z"/><path class="cls-2" d="M313.22,31.81l-7.63-2.68c-7.11-2.48-7.73-5.88-7.73-7.74,0-4.84,3.81-6.7,8.76-6.7,2.89,0,8.15.82,11.14,8.15l13-6.5C326.32,5.92,317.76.56,306.62.56c-14.12,0-24.34,8-24.34,21,0,6,2.38,16,18.36,21.45l7.84,2.68c6.91,2.38,8.36,5,8.36,7.74,0,5.36-5.06,7.42-10.83,7.42-6.71,0-11.14-3.4-13.1-9.9l-14.23,2.79C280,67.18,292.8,75,306.52,75c12.69,0,25.89-6.7,25.89-21.86C332.41,46.66,329.31,36.76,313.22,31.81Z"/><path class="cls-2" d="M388.51,1.69V33.05H361.08V1.69h-16v72.2h16V45.73h27.43V73.89h16V1.69Z"/><path class="cls-2" d="M454.63.56a37.23,37.23,0,1,0,37.43,37.23A37.41,37.41,0,0,0,454.63.56Zm0,59.82c-12,0-21.76-9.39-21.76-22.59s9.79-22.59,21.76-22.59,21.66,9.39,21.66,22.59S466.59,60.38,454.63,60.38Z"/><path class="cls-2" d="M536.31,1.69H504.65v72.2h16V48.41h15.67c14.85,0,23.21-10.31,23.21-23.1S551.16,1.69,536.31,1.69Zm-2.06,34.14H520.64V14.38h13.61c5.78,0,9.18,4.33,9.18,10.83C543.43,31.4,540,35.83,534.25,35.83Z"/><path class="cls-1" d="M149.08,26.53l-22.45-3.65a1.32,1.32,0,0,0-1.53,1.31V74.44a36.91,36.91,0,0,0,7.93.85,37.35,37.35,0,0,0,17.16-4.14V27.83A1.32,1.32,0,0,0,149.08,26.53ZM133,25.69h.09l9.26,1.44a.64.64,0,0,1,.52.72.62.62,0,0,1-.61.53h-.1l-9.26-1.44a.62.62,0,0,1-.52-.71A.63.63,0,0,1,133,25.69Z"/><path class="cls-1" d="M137.58,21.72l-8.25-1.34V17.83L135.06,19A3.25,3.25,0,0,1,137.58,21.72Z"/><path class="cls-1" d="M170.67,37.64a37.59,37.59,0,0,1-16.44,31.11v-42a2.75,2.75,0,0,0-2.31-2.71l-1.77-.29-.63-.1v-4.2a6.11,6.11,0,0,0-4.85-6l-10.85-2.3a6.08,6.08,0,0,0-5.11,1.23,6,6,0,0,0-1.61,2l-2.29-.49a6.11,6.11,0,0,0-7.38,6V20a2.75,2.75,0,0,0-.55,1.65v50a37.4,37.4,0,0,1-15.63-13.92l-.11-.17c-.13-.21-.26-.41-.38-.62-.24-.38-.47-.75-.68-1.14L99.62,55q-.27-.51-.51-1c-.21-.41-.4-.83-.58-1.25s-.36-.84-.53-1.26-.43-1.14-.63-1.71c-.1-.29-.19-.58-.28-.87s-.12-.37-.17-.56c-.12-.38-.22-.76-.32-1.14s-.25-1-.36-1.49l-.15-.77c0-.17-.07-.35-.1-.52s0-.21,0-.31c0-.28-.1-.57-.14-.85,0,0,0-.07,0-.1-.06-.44-.12-.87-.16-1.3s-.08-.77-.11-1.16v0c0-.23,0-.45,0-.68,0-.51-.06-1-.06-1.54,0-.12,0-.25,0-.38s0-.26,0-.39a37.64,37.64,0,1,1,75.28,0Z"/><path class="cls-1" d="M146.63,19.46v3.73l-6.13-1a6.12,6.12,0,0,0-4.84-6l-4.47-.94-1.07-.23a3.78,3.78,0,0,1,.4-.4,3.25,3.25,0,0,1,2.7-.65l10.85,2.3A3.24,3.24,0,0,1,146.63,19.46Z"/><path class="cls-1" d="M126.44,17.22v2.7l-2.2-.36a2.06,2.06,0,0,0-.26,0l-2.58-.33-.27-.05a.48.48,0,0,1-.37-.25.55.55,0,0,1,0-.59,3.41,3.41,0,0,1,.78-.92,3.25,3.25,0,0,1,2.7-.65l.4.09Z"/></svg>