<svg id="Capa_1" data-name="Capa 1" xmlns="http://www.w3.org/2000/svg" viewBox="0 0 1041.51 129.01"><defs><style>.cls-1{fill:#2866d9;}.cls-2{fill:#143668;}</style></defs><path class="cls-1" d="M135.92,2.9H108.34L73.7,86.14,39.06,2.9H11.49L0,126.62H27.4l6.53-75.3L64.86,125.2H82.54l30.93-73.88,6.54,75.3H147.4Z"/><path class="cls-1" d="M383.35,62.46c13.43-4.77,20.14-15.2,20.14-25.81,0-21-18.56-33.75-43.47-33.75l-46.49-.18v123.9h51.79c26.15,0,43.83-13.79,43.83-34.82C409.15,79.07,398.19,65.29,383.35,62.46ZM340.93,24.64H360c8.3,0,15.72,4.24,15.72,13.25,0,8.13-4.24,17-23.5,17H340.93Zm24.39,80.24H340.93V74h14.31c22.8,0,26.16,8.83,26.16,17.32C381.4,99.57,374.51,104.88,365.32,104.88Z"/><path class="cls-1" d="M430.53,2.9V126.62h27.39V2.9Z"/><path class="cls-2" d="M536.75,54.5l-13.08-4.59c-12.19-4.24-13.25-10.07-13.25-13.26,0-8.3,6.53-11.48,15-11.48,4.95,0,14,1.41,19.09,14L566.8,28c-7.6-17.85-22.27-27-41.36-27C501.22,1,483.73,14.74,483.73,37c0,10.25,4.06,27.39,31.46,36.76l13.43,4.59c11.84,4.07,14.32,8.49,14.32,13.26,0,9.19-8.66,12.73-18.56,12.73-11.49,0-19.09-5.84-22.45-17l-24.39,4.77c2.3,23,24.22,36.41,47.72,36.41,21.74,0,44.36-11.49,44.36-37.47C569.62,80,564.32,63,536.75,54.5Z"/><path class="cls-2" d="M580.93,2.9v23h34.82V126.62h27V25.87H678V2.9Z"/><path class="cls-2" d="M749,1c-35.53,0-64.33,28.63-64.33,63.81s28.8,63.8,64.33,63.8c35.35,0,64.16-28.63,64.16-63.8S784.36,1,749,1Zm0,102.51c-20.5,0-37.29-16.08-37.29-38.7S728.51,26.05,749,26.05s37.11,16.08,37.11,38.71S769.51,103.46,749,103.46Z"/><path class="cls-2" d="M935.82,99a18.62,18.62,0,0,1-12.55,5.31c-12.37,0-17.14-10.43-20.5-23.69,16.26-5.12,26.16-19.44,26.16-37.11,0-21.92-14-40.65-39.41-40.65h-55V126.62h27.22v-44H878.2c1.42,13.25,10.43,46,39.77,46,12.73,0,19.62-4.24,27.57-10.6ZM886,60.69H861.77V25.87H886c9.9,0,15.55,6.9,15.55,17.5C901.53,53.8,895.88,60.69,886,60.69Z"/><path class="cls-2" d="M1041.51,24.64V2.9H959.32V126.62h82.19V104.88H986.72V76.77h47.54V55H986.72V24.64Z"/><path class="cls-1" d="M255.47,45.46,217,39.21a2.26,2.26,0,0,0-2.63,2.25v86.1a64.56,64.56,0,0,0,43-5.63V47.69A2.27,2.27,0,0,0,255.47,45.46Zm-11.66,3.19h-.18l-15.85-2.47a1.07,1.07,0,0,1-.9-1.22,1.08,1.08,0,0,1,1.06-.92l.17,0L244,46.51a1.09,1.09,0,0,1,.9,1.23A1.06,1.06,0,0,1,243.81,48.65Z"/><path class="cls-1" d="M235.76,37.22l-14.14-2.29V30.55l9.82,2.08A5.57,5.57,0,0,1,235.76,37.22Z"/><path class="cls-1" d="M292.46,64.51a64.42,64.42,0,0,1-28.17,53.3v-72a4.7,4.7,0,0,0-4-4.64l-3-.49-1.09-.18V33.35a10.48,10.48,0,0,0-8.31-10.25l-18.59-3.94a10.4,10.4,0,0,0-8.76,2.11,10.55,10.55,0,0,0-2.76,3.42l-3.93-.83A10.46,10.46,0,0,0,201.23,34.1v.25a4.62,4.62,0,0,0-.95,2.81v85.62a64.55,64.55,0,0,1-31-31.48.6.6,0,0,1-.08-.16c-.12-.26-.24-.52-.35-.79-.2-.45-.4-.92-.59-1.38-.35-.84-.68-1.68-1-2.54-.17-.44-.32-.88-.47-1.33s-.31-.92-.45-1.39l-.45-1.51c-.29-1-.55-2-.79-3-.12-.52-.24-1-.34-1.55s-.18-.88-.26-1.32-.13-.75-.2-1.12V75.1c-.06-.33-.11-.66-.16-1-.15-1-.27-2-.37-3s-.18-2-.24-3V68c-.07-1.17-.1-2.34-.1-3.53a64.5,64.5,0,1,1,129,0Z"/><path class="cls-1" d="M251.27,33.35v6.39L240.77,38a10.51,10.51,0,0,0-8.3-10.24l-7.64-1.62L223,25.78a4.87,4.87,0,0,1,.69-.67A5.52,5.52,0,0,1,228.3,24l18.59,3.94A5.56,5.56,0,0,1,251.27,33.35Z"/><path class="cls-1" d="M216.68,29.5v4.63l-3.77-.61a3.44,3.44,0,0,0-.45-.05L208,32.89l-.47-.07a1,1,0,0,1-.68-1.44,5.51,5.51,0,0,1,6-2.69l.69.15Z"/></svg>