<svg id="Capa_1" data-name="Capa 1" xmlns="http://www.w3.org/2000/svg" viewBox="0 0 300.68 40.46"><defs><style>.cls-1{fill:#fff;}</style></defs><path class="cls-1" d="M42.62.91H34L23.11,27,12.25.91H3.6L0,39.71H8.59l2.05-23.62,9.7,23.17h5.54l9.7-23.17,2.05,23.62h8.59Z"/><path class="cls-1" d="M120.21,19.59c4.22-1.5,6.32-4.77,6.32-8.1C126.53,4.9,120.71.91,112.9.91L98.32.85V39.71h16.24c8.21,0,13.75-4.33,13.75-10.92C128.31,24.8,124.87,20.47,120.21,19.59ZM106.91,7.73h6c2.6,0,4.93,1.33,4.93,4.15,0,2.55-1.33,5.33-7.37,5.33h-3.55Zm7.65,25.16h-7.65v-9.7h4.49c7.15,0,8.21,2.77,8.21,5.43S117.45,32.89,114.56,32.89Z"/><path class="cls-1" d="M135,.91v38.8h8.6V.91Z"/><path class="cls-1" d="M168.32,17.09l-4.1-1.44c-3.82-1.33-4.15-3.16-4.15-4.16,0-2.6,2-3.6,4.7-3.6,1.56,0,4.38.44,6,4.38l7-3.49c-2.39-5.6-7-8.48-13-8.48-7.58,0-13.08,4.32-13.08,11.31,0,3.21,1.28,8.59,9.87,11.52l4.21,1.44c3.72,1.28,4.5,2.66,4.5,4.16,0,2.88-2.72,4-5.82,4-3.61,0-6-1.83-7-5.32l-7.65,1.5c.72,7.2,7.59,11.41,15,11.41,6.82,0,13.91-3.6,13.91-11.74C178.63,25.07,177,19.75,168.32,17.09Z"/><path class="cls-1" d="M208.78.91V17.76H194V.91h-8.59v38.8H194V24.57h14.74V39.71h8.59V.91Z"/><path class="cls-1" d="M244.31.3a20,20,0,1,0,20.12,20A20.1,20.1,0,0,0,244.31.3Zm0,32.15c-6.43,0-11.69-5.05-11.69-12.14s5.26-12.14,11.69-12.14S256,13.21,256,20.31,250.74,32.45,244.31,32.45Z"/><path class="cls-1" d="M288.21.91h-17v38.8h8.6V26h8.42c8,0,12.47-5.54,12.47-12.41S296.19.91,288.21.91ZM287.1,19.25h-7.31V7.73h7.31c3.11,0,4.93,2.32,4.93,5.82C292,16.87,290.21,19.25,287.1,19.25Z"/><path class="cls-1" d="M80.11,14.26l-12.06-2a.71.71,0,0,0-.82.7V40a19.86,19.86,0,0,0,4.26.46,20.11,20.11,0,0,0,9.22-2.22V15A.7.7,0,0,0,80.11,14.26Zm-8.63-.45h0l5,.77a.36.36,0,0,1,.28.39.34.34,0,0,1-.33.29h0l-5-.77a.34.34,0,0,1-.28-.38A.34.34,0,0,1,71.48,13.81Z"/><path class="cls-1" d="M73.93,11.67,69.5,11V9.58l3.08.65A1.74,1.74,0,0,1,73.93,11.67Z"/><path class="cls-1" d="M91.72,20.23A20.21,20.21,0,0,1,82.88,37V14.38a1.49,1.49,0,0,0-1.24-1.46l-1-.15-.34-.06V10.46a3.3,3.3,0,0,0-2.61-3.22L71.91,6a3.23,3.23,0,0,0-2.74.66,3.31,3.31,0,0,0-.87,1.07l-1.23-.26a3.32,3.32,0,0,0-2.75.66,3.28,3.28,0,0,0-1.21,2.55v.08a1.45,1.45,0,0,0-.3.89V38.5A20.07,20.07,0,0,1,54.41,31l-.06-.09c-.07-.11-.14-.22-.2-.33s-.26-.4-.37-.61l-.25-.46L53.26,29c-.11-.22-.21-.45-.31-.67s-.19-.46-.29-.68-.23-.61-.33-.92a4.26,4.26,0,0,1-.15-.47c0-.1-.07-.2-.1-.3s-.11-.41-.17-.61-.13-.53-.19-.8-.06-.28-.08-.42l-.06-.28a.88.88,0,0,1,0-.16c0-.15-.06-.31-.08-.46a.07.07,0,0,0,0,0c0-.24-.06-.47-.08-.7s0-.42-.06-.63h0l0-.36c0-.28,0-.55,0-.83v-.2a1.48,1.48,0,0,1,0-.21,20.23,20.23,0,0,1,40.46,0Z"/><path class="cls-1" d="M78.8,10.46v2l-3.3-.53a3.28,3.28,0,0,0-2.6-3.21l-2.4-.51-.57-.12a2.18,2.18,0,0,1,.21-.22,1.76,1.76,0,0,1,1.45-.35l5.83,1.24A1.74,1.74,0,0,1,78.8,10.46Z"/><path class="cls-1" d="M68,9.25V10.7l-1.18-.19h-.14l-1.39-.18-.15,0a.23.23,0,0,1-.19-.13.29.29,0,0,1,0-.32,1.79,1.79,0,0,1,.42-.49A1.73,1.73,0,0,1,66.75,9L67,9Z"/></svg>