<svg id="Capa_1" data-name="Capa 1" xmlns="http://www.w3.org/2000/svg" xmlns:xlink="http://www.w3.org/1999/xlink" viewBox="0 0 321.98 120.65"><defs><style>.cls-1{fill:url(#Degradado_sin_nombre_18);}.cls-2{fill:url(#Degradado_sin_nombre_18-2);}.cls-3{fill:url(#Degradado_sin_nombre_18-3);}.cls-4{fill:url(#Degradado_sin_nombre_18-4);}.cls-5{fill:url(#Degradado_sin_nombre_18-5);}</style><linearGradient id="Degradado_sin_nombre_18" x1="-33.11" y1="20.64" x2="180.93" y2="154" gradientUnits="userSpaceOnUse"><stop offset="0" stop-color="#3fc1ff"/><stop offset="1" stop-color="#005cbf"/></linearGradient><linearGradient id="Degradado_sin_nombre_18-2" x1="27.96" y1="-77.37" x2="242" y2="55.98" xlink:href="#Degradado_sin_nombre_18"/><linearGradient id="Degradado_sin_nombre_18-3" x1="1.05" y1="-34.18" x2="215.09" y2="99.18" xlink:href="#Degradado_sin_nombre_18"/><linearGradient id="Degradado_sin_nombre_18-4" x1="34.61" y1="-88.05" x2="248.65" y2="45.3" xlink:href="#Degradado_sin_nombre_18"/><linearGradient id="Degradado_sin_nombre_18-5" x1="63.25" y1="-134.02" x2="277.29" y2="-0.67" xlink:href="#Degradado_sin_nombre_18"/></defs><g id="AnDfBo"><path class="cls-1" d="M61.74,83c-3.82,6.94-9.45,11-17.52,11s-13.7-3.88-17.59-10.8c-.47.46-.3,1-.3,1.41q0,15.85,0,31.72c0,1.83,0,1.83-1.8,1.83H1.65c-1.5,0-1.62-.11-1.62-1.61C0,92-.06,67.36.08,42.74A40.77,40.77,0,0,1,5.4,23.07a44.19,44.19,0,0,1,13.36-15A42.74,42.74,0,0,1,34,1.31,43.12,43.12,0,0,1,45.71.15a44,44,0,0,1,25.7,9.39A43.54,43.54,0,0,1,86.23,30.86a41.47,41.47,0,0,1,1.94,12.92q0,36.06,0,72.14c0,.3,0,.61,0,.91.09,1-.38,1.39-1.39,1.39-4.57,0-9.14,0-13.71,0H63.54c-1.58,0-1.66-.08-1.67-1.66V84.15A2,2,0,0,0,61.74,83Zm.06-16.4c0-.48.07-.7.07-.91,0-7.67,0-15.33,0-23a13.36,13.36,0,0,0-1.1-5.17c-2.6-6.15-7.1-10-13.73-11.19A16.82,16.82,0,0,0,32.1,30.8a17.68,17.68,0,0,0-5.78,13.76c0,6.87,0,13.74,0,20.61,0,.35-.13.75.26,1.15,3.84-6.86,9.5-10.86,17.49-10.87S57.84,59.39,61.8,66.6Z"/><path class="cls-2" d="M281.15,43c0,12,.08,24,0,36a40.08,40.08,0,0,1-2.34,12.51,41.39,41.39,0,0,1-6.91,12.64A43.27,43.27,0,0,1,259.07,115a44.92,44.92,0,0,1-18,5.5,43.34,43.34,0,0,1-25.19-5.26,43.83,43.83,0,0,1-22.32-44.72A42.1,42.1,0,0,1,199,55a43.92,43.92,0,0,1,7.6-9.65A44.46,44.46,0,0,1,223.8,35.24a42.94,42.94,0,0,1,14-2A33.33,33.33,0,0,1,253.25,37c1.71.93,1.73.9,1.73-1q0-15,0-30c0-1.61,0-1.62,1.65-1.62H279.5c1.63,0,1.65,0,1.65,1.63Zm-44,51.61a17.74,17.74,0,1,0-17.82-17.76A17.53,17.53,0,0,0,237.17,94.61Z"/><path class="cls-3" d="M184.88,43.25c0,11.74.05,23.48,0,35.22a41.44,41.44,0,0,1-3.51,16.13,42.07,42.07,0,0,1-8.79,13.07,43.12,43.12,0,0,1-10.93,7.94,44.19,44.19,0,0,1-16.27,4.78,44.08,44.08,0,0,1-45-26.29A43.3,43.3,0,0,1,106,50.27a43.88,43.88,0,0,1,17.76-13.58,43.05,43.05,0,0,1,17.39-3.44,33.41,33.41,0,0,1,16.6,4.16c.95.54,1,.5,1-.8V6.08c0-1.62,0-1.63,1.65-1.63H183c1.92,0,1.9,0,1.9,1.88V43.25ZM141,94.61c9.85.2,17.64-8.11,17.73-17.41a17.77,17.77,0,1,0-35.54-.34C123.1,87,131.54,94.92,141,94.61Z"/><path class="cls-4" d="M318.31,80.6v36.34c0,1.68,0,1.71-1.7,1.71h-23c-1.51,0-1.62-.11-1.62-1.6q0-36.51,0-73c0-1.46.15-1.63,1.61-1.63,7.83,0,15.67,0,23.5,0,.83,0,1.18.32,1.17,1.12,0,.38,0,.75,0,1.13Z"/><path class="cls-5" d="M288.5,16.79a16.75,16.75,0,1,1,17.29,16.78A16.75,16.75,0,0,1,288.5,16.79Z"/></g></svg>