<svg id="Capa_1" data-name="Capa 1" xmlns="http://www.w3.org/2000/svg" viewBox="0 0 509.48 511.93"><defs><style>.cls-1{fill:#143668;}</style></defs><g id="CkEnLG"><path class="cls-1" d="M175.85,511.93c-16.6-3.86-29.92-12.39-38.93-27.16-21.24-34.83,2.21-81.21,42.62-85.1a57.3,57.3,0,0,1,62.24,49.1c4,28.33-15.2,55.58-44.6,62.45-.8.18-1.58.47-2.37.71Zm9.5-86.83c-17.32.08-31.31,14.17-30.91,31.14a31,31,0,0,0,62.08-.43C216.49,438.39,202.92,425,185.35,425.1Z"/><path class="cls-1" d="M396.42,511.93c-16.61-3.85-29.91-12.38-38.93-27.16-21.25-34.82,2.19-81.21,42.58-85.1a57.26,57.26,0,0,1,62.25,49.08c4.1,28.34-15.14,55.56-44.57,62.47-.8.18-1.58.47-2.37.71ZM406,486.79a30.73,30.73,0,0,0,31.09-30.92c0-17.32-13.63-30.84-31.12-30.77a30.85,30.85,0,1,0,0,61.69Z"/><path class="cls-1" d="M314.46,366.46q-62.37,0-124.75,0c-23.36-.05-41.75-9.63-54.53-29.35-6.69-10.32-8.49-22.21-10.48-34Q111,222,97.24,140.9c-4.78-28.17-9.41-56.37-14.46-84.49-3.42-19-17-30.15-36.32-30.37-9.82-.12-19.63,0-29.44-.08A34.81,34.81,0,0,1,9.13,25,12.49,12.49,0,0,1,0,12.77C.24,7.13,4.3,1.24,9.77,1.09,27.18.62,44.85-1.78,61.93,2.52c26.41,6.63,41.33,24.63,46.29,51.09,2.45,13.06,4.84,26.14,6.66,39.3.73,5.32,2.77,6.77,8,6.76q109.28-.23,218.55-.1H493.57c13.28.08,18.66,7.57,14.56,20.34q-10.51,32.78-21.08,65.51c-5.52,17.09-10.38,34.42-16.78,51.17-12.15,31.83-37.95,49-72,49q-117.76.06-235.52,0c-3.49,0-7,.12-10.48,0s-4.5,1.39-3.92,4.56c1.41,7.68,2.48,15.44,4.23,23,3.74,16.22,17.2,27,34.17,27.71,2.32.1,4.65.05,7,.05H443.22c8.95,0,13.71,3,15.52,9.55a12.22,12.22,0,0,1-7.68,14.83,26.27,26.27,0,0,1-8.86,1.12Q378.33,366.43,314.46,366.46ZM300.66,125H128.08c-1.33,0-2.66.08-4,0-2.63-.17-3.72.82-3,3.53.33,1.28.35,2.63.58,3.94C128.47,172.75,135.4,213,142.1,253.3c.8,4.85,2.17,7,7.7,7q124.44-.28,248.89-.14c24.47,0,41.84-12.77,49.25-35.95q15-46.76,30-93.51c1.8-5.63,1.81-5.64-4.19-5.64Z"/></g></svg>