<svg id="Capa_1" data-name="Capa 1" xmlns="http://www.w3.org/2000/svg" xmlns:xlink="http://www.w3.org/1999/xlink" viewBox="0 0 100 100"><defs><style>.cls-1{fill:url(#Degradado_sin_nombre_18);}.cls-2{fill:url(#Degradado_sin_nombre_18-2);}.cls-3{fill:url(#Degradado_sin_nombre_18-3);}.cls-4{fill:url(#Degradado_sin_nombre_18-4);}.cls-5{fill:url(#Degradado_sin_nombre_18-5);}.cls-6{font-size:7.93px;fill:#2866d9;font-family:Poppins-SemiBold, Poppins;font-weight:600;}</style><linearGradient id="Degradado_sin_nombre_18" x1="13.48" y1="-4.21" x2="66.21" y2="54.28" gradientUnits="userSpaceOnUse"><stop offset="0" stop-color="#3fc1ff"/><stop offset="1" stop-color="#005cbf"/></linearGradient><linearGradient id="Degradado_sin_nombre_18-2" x1="13.51" y1="-4.23" x2="66.23" y2="54.26" xlink:href="#Degradado_sin_nombre_18"/><linearGradient id="Degradado_sin_nombre_18-3" x1="13.61" y1="-4.32" x2="66.34" y2="54.17" xlink:href="#Degradado_sin_nombre_18"/><linearGradient id="Degradado_sin_nombre_18-4" x1="18.44" y1="-8.67" x2="71.17" y2="49.81" xlink:href="#Degradado_sin_nombre_18"/><linearGradient id="Degradado_sin_nombre_18-5" x1="4.31" y1="4.06" x2="57.04" y2="62.55" xlink:href="#Degradado_sin_nombre_18"/></defs><path class="cls-1" d="M54,17.41c3.42,0,6.85-.12,10.27,0a12.52,12.52,0,0,1,12.11,11,102.28,102.28,0,0,1,0,24A12.59,12.59,0,0,1,64.1,63.69c-6.71.17-13.43.16-20.15,0A12.89,12.89,0,0,1,31,50.92c-.21-7-.24-14,0-20.94.26-7.28,5.8-12.42,13.12-12.58,3.29-.07,6.58,0,9.88,0ZM35.09,40.29c0,3.29-.08,6.57,0,9.86.17,5.72,3.47,9.49,9.19,9.78a186.56,186.56,0,0,0,18.92,0c6.2-.32,9.51-4.11,9.57-10.28s.08-12.36,0-18.53c-.08-5.83-3.68-9.75-9.5-10-6.3-.23-12.62-.25-18.92,0-5.86.25-9.05,3.76-9.24,9.65C35,34,35.09,37.14,35.09,40.29Z"/><path class="cls-2" d="M22.9,44.57c0-4,0-7.9,0-11.86C23,18.76,31.52,9.59,45.51,9,54.85,8.63,64.22,8.9,73.58,9c1.48,0,3.55-.24,3.48,2.12s-2.13,2-3.61,2c-9.22.06-18.45,0-27.67.06-11.37.09-19,7.79-19.14,19.18-.08,8.43,0,16.87,0,25.3,0,1,0,2.11,0,3.16-.06,1.34-.08,2.84-2,2.73-1.68-.1-1.6-1.52-1.61-2.68,0-5.4,0-10.81,0-16.21Z"/><path class="cls-3" d="M37.83,31a7.82,7.82,0,1,1,7.82,8.09A7.93,7.93,0,0,1,37.83,31Z"/><path class="cls-4" d="M70.74,40.41a8.35,8.35,0,0,1-8,8.11,8.31,8.31,0,0,1-7.86-7.84,8.32,8.32,0,0,1,7.61-8.09A8.25,8.25,0,0,1,70.74,40.41Z"/><path class="cls-5" d="M37.84,49.5a7.82,7.82,0,1,1,7.71,8.27A7.78,7.78,0,0,1,37.84,49.5Z"/><text class="cls-6" transform="translate(25.64 76.79)">Cámara Pro<tspan x="13.21" y="9.52">48MP</tspan></text></svg>