<svg id="Capa_1" data-name="Capa 1" xmlns="http://www.w3.org/2000/svg" xmlns:xlink="http://www.w3.org/1999/xlink" viewBox="0 0 100 100"><defs><style>.cls-1{font-size:7.93px;font-family:Poppins-SemiBold, Poppins;font-weight:600;}.cls-1,.cls-2{fill:#2866d9;}.cls-3{fill:url(#Degradado_sin_nombre_18);}</style><linearGradient id="Degradado_sin_nombre_18" x1="28.17" y1="15.6" x2="71.83" y2="64.04" gradientUnits="userSpaceOnUse"><stop offset="0" stop-color="#3fc1ff"/><stop offset="1" stop-color="#005cbf"/></linearGradient></defs><text class="cls-1" transform="translate(28.05 76.79)">Nuevo Chip<tspan x="0.57" y="9.52">biónico A16</tspan></text><path class="cls-2" d="M44.25,43.79H39.64L38.87,46H36.43L40.6,34.39h2.71L47.48,46H45Zm-.63-1.86-1.68-4.85-1.67,4.85Z"/><path class="cls-2" d="M48.49,36V33.89h4V46H50.1V36Z"/><path class="cls-2" d="M60.49,35.86a1.76,1.76,0,0,0-1.17-.34,1.8,1.8,0,0,0-1.69.92,6.3,6.3,0,0,0-.55,3,2.62,2.62,0,0,1,1.16-1A3.71,3.71,0,0,1,59.9,38a3.83,3.83,0,0,1,1.91.47,3.26,3.26,0,0,1,1.3,1.35A4.72,4.72,0,0,1,63.57,42a4.63,4.63,0,0,1-.47,2.1,3.5,3.5,0,0,1-1.39,1.44,5.08,5.08,0,0,1-4.89-.25,4,4,0,0,1-1.38-2.14,12.51,12.51,0,0,1-.39-3.38,8.2,8.2,0,0,1,1.05-4.59,4.33,4.33,0,0,1,6-.61,3.77,3.77,0,0,1,1.11,2.36H61.06A2,2,0,0,0,60.49,35.86Zm-2.6,4.59a1.85,1.85,0,0,0-.6,1.49,1.94,1.94,0,0,0,2.13,2.11,1.85,1.85,0,0,0,1.42-.55A2,2,0,0,0,61.36,42a2.21,2.21,0,0,0-.51-1.53,1.86,1.86,0,0,0-1.48-.57A2.21,2.21,0,0,0,57.89,40.45Z"/><path class="cls-3" d="M66,65.83H34a10,10,0,0,1-10-10v-32a10,10,0,0,1,10-10H66a10,10,0,0,1,10,10v32A10,10,0,0,1,66,65.83ZM34,18a5.84,5.84,0,0,0-5.83,5.83v32A5.84,5.84,0,0,0,34,61.66H66a5.84,5.84,0,0,0,5.83-5.83v-32A5.84,5.84,0,0,0,66,18Z"/></svg>