<svg id="Capa_1" data-name="Capa 1" xmlns="http://www.w3.org/2000/svg" xmlns:xlink="http://www.w3.org/1999/xlink" viewBox="0 0 100 100"><defs><style>.cls-1{fill:none;}.cls-2{font-size:7.93px;fill:#2866d9;font-family:Poppins-SemiBold, Poppins;font-weight:600;}.cls-3{clip-path:url(#clip-path);}.cls-4{fill:#3fc1ff;}.cls-5{fill:#3ec0fe;}.cls-6{fill:#3ebffe;}.cls-7{fill:#3dbefd;}.cls-8{fill:#3cbdfc;}.cls-9{fill:#3cbcfc;}.cls-10{fill:#3bbbfb;}.cls-11{fill:#3bbafb;}.cls-12{fill:#3ab9fa;}.cls-13{fill:#39b8f9;}.cls-14{fill:#39b7f9;}.cls-15{fill:#38b6f8;}.cls-16{fill:#37b5f7;}.cls-17{fill:#37b4f7;}.cls-18{fill:#36b3f6;}.cls-19{fill:#36b2f5;}.cls-20{fill:#35b1f5;}.cls-21{fill:#34b0f4;}.cls-22{fill:#34aff3;}.cls-23{fill:#33aef3;}.cls-24{fill:#32adf2;}.cls-25{fill:#32acf2;}.cls-26{fill:#31abf1;}.cls-27{fill:#31aaf0;}.cls-28{fill:#30a9f0;}.cls-29{fill:#2fa8ef;}.cls-30{fill:#2fa7ee;}.cls-31{fill:#2ea6ee;}.cls-32{fill:#2da5ed;}.cls-33{fill:#2da4ec;}.cls-34{fill:#2ca3ec;}.cls-35{fill:#2ba2eb;}.cls-36{fill:#2ba1eb;}.cls-37{fill:#2aa0ea;}.cls-38{fill:#2a9fe9;}.cls-39{fill:#299ee9;}.cls-40{fill:#289de8;}.cls-41{fill:#289ce7;}.cls-42{fill:#279be7;}.cls-43{fill:#269ae6;}.cls-44{fill:#2699e5;}.cls-45{fill:#2598e5;}.cls-46{fill:#2597e4;}.cls-47{fill:#2496e3;}.cls-48{fill:#2395e3;}.cls-49{fill:#2394e2;}.cls-50{fill:#2293e2;}.cls-51{fill:#2192e1;}.cls-52{fill:#2191e0;}.cls-53{fill:#2090e0;}.cls-54{fill:#208fdf;}.cls-55{fill:#1f8dde;}.cls-56{fill:#1e8cde;}.cls-57{fill:#1e8bdd;}.cls-58{fill:#1d8adc;}.cls-59{fill:#1c89dc;}.cls-60{fill:#1c88db;}.cls-61{fill:#1b87db;}.cls-62{fill:#1a86da;}.cls-63{fill:#1a85d9;}.cls-64{fill:#1984d9;}.cls-65{fill:#1983d8;}.cls-66{fill:#1882d7;}.cls-67{fill:#1781d7;}.cls-68{fill:#1780d6;}.cls-69{fill:#167fd5;}.cls-70{fill:#157ed5;}.cls-71{fill:#157dd4;}.cls-72{fill:#147cd3;}.cls-73{fill:#147bd3;}.cls-74{fill:#137ad2;}.cls-75{fill:#1279d2;}.cls-76{fill:#1278d1;}.cls-77{fill:#1177d0;}.cls-78{fill:#1076d0;}.cls-79{fill:#1075cf;}.cls-80{fill:#0f74ce;}.cls-81{fill:#0e73ce;}.cls-82{fill:#0e72cd;}.cls-83{fill:#0d71cc;}.cls-84{fill:#0d70cc;}.cls-85{fill:#0c6fcb;}.cls-86{fill:#0b6ecb;}.cls-87{fill:#0b6dca;}.cls-88{fill:#0a6cc9;}.cls-89{fill:#096bc9;}.cls-90{fill:#096ac8;}.cls-91{fill:#0869c7;}.cls-92{fill:#0868c7;}.cls-93{fill:#0767c6;}.cls-94{fill:#0666c5;}.cls-95{fill:#0665c5;}.cls-96{fill:#0564c4;}.cls-97{fill:#0463c3;}.cls-98{fill:#0462c3;}.cls-99{fill:#0361c2;}.cls-100{fill:#0360c2;}.cls-101{fill:#025fc1;}.cls-102{fill:#015ec0;}.cls-103{fill:#015dc0;}.cls-104{fill:#005cbf;}.cls-105{fill:url(#Degradado_sin_nombre_18);}.cls-106{clip-path:url(#clip-path-2);}</style><clipPath id="clip-path"><path class="cls-1" d="M79.29,22.05V63.67a1.63,1.63,0,0,1-1.64,1.64h0A1.63,1.63,0,0,1,76,63.67V22a9,9,0,0,0-9-9H35.64a9,9,0,0,0-9,9V63.67A1.63,1.63,0,0,1,25,65.31h0a1.63,1.63,0,0,1-1.64-1.64V22A12.24,12.24,0,0,1,35.63,9.81H67.05A12.24,12.24,0,0,1,79.29,22.05Z"/></clipPath><linearGradient id="Degradado_sin_nombre_18" x1="26.37" y1="13.26" x2="76.01" y2="68.04" gradientUnits="userSpaceOnUse"><stop offset="0" stop-color="#3fc1ff"/><stop offset="1" stop-color="#005cbf"/></linearGradient><clipPath id="clip-path-2"><rect class="cls-1" x="42.51" y="16.05" width="17.67" height="6.14" rx="3.02"/></clipPath></defs><text class="cls-2" transform="translate(33.15 76.79)">Dynamic<tspan x="5.83" y="9.52">Island</tspan></text><g class="cls-3"><polygon class="cls-4" points="30.91 9.81 23.4 16.62 23.4 9.81 30.91 9.81"/><polygon class="cls-4" points="31.99 9.81 23.4 17.59 23.4 16.62 30.91 9.81 31.99 9.81"/><polygon class="cls-5" points="33.06 9.81 23.4 18.57 23.4 17.59 31.99 9.81 33.06 9.81"/><polygon class="cls-6" points="34.14 9.81 23.4 19.54 23.4 18.57 33.06 9.81 34.14 9.81"/><polygon class="cls-7" points="35.22 9.81 23.4 20.52 23.4 19.54 34.14 9.81 35.22 9.81"/><polygon class="cls-8" points="36.29 9.81 23.4 21.49 23.4 20.52 35.22 9.81 36.29 9.81"/><polygon class="cls-9" points="37.37 9.81 23.4 22.46 23.4 21.49 36.29 9.81 37.37 9.81"/><polygon class="cls-10" points="38.44 9.81 23.4 23.44 23.4 22.46 37.37 9.81 38.44 9.81"/><polygon class="cls-11" points="39.52 9.81 23.4 24.41 23.4 23.44 38.44 9.81 39.52 9.81"/><polygon class="cls-12" points="40.59 9.81 23.4 25.39 23.4 24.41 39.52 9.81 40.59 9.81"/><polygon class="cls-13" points="41.67 9.81 23.4 26.36 23.4 25.39 40.59 9.81 41.67 9.81"/><polygon class="cls-14" points="42.74 9.81 23.4 27.34 23.4 26.36 41.67 9.81 42.74 9.81"/><polygon class="cls-15" points="43.82 9.81 23.4 28.31 23.4 27.34 42.74 9.81 43.82 9.81"/><polygon class="cls-16" points="44.89 9.81 23.4 29.29 23.4 28.31 43.82 9.81 44.89 9.81"/><polygon class="cls-17" points="45.97 9.81 23.4 30.26 23.4 29.29 44.89 9.81 45.97 9.81"/><polygon class="cls-18" points="47.05 9.81 23.4 31.24 23.4 30.26 45.97 9.81 47.05 9.81"/><polygon class="cls-19" points="48.12 9.81 23.4 32.21 23.4 31.24 47.05 9.81 48.12 9.81"/><polygon class="cls-20" points="49.2 9.81 23.4 33.19 23.4 32.21 48.12 9.81 49.2 9.81"/><polygon class="cls-21" points="50.27 9.81 23.4 34.16 23.4 33.19 49.2 9.81 50.27 9.81"/><polygon class="cls-22" points="51.35 9.81 23.4 35.13 23.4 34.16 50.27 9.81 51.35 9.81"/><polygon class="cls-23" points="52.42 9.81 23.4 36.11 23.4 35.13 51.35 9.81 52.42 9.81"/><polygon class="cls-24" points="53.5 9.81 23.4 37.08 23.4 36.11 52.42 9.81 53.5 9.81"/><polygon class="cls-25" points="54.57 9.81 23.4 38.06 23.4 37.08 53.5 9.81 54.57 9.81"/><polygon class="cls-26" points="55.65 9.81 23.4 39.03 23.4 38.06 54.57 9.81 55.65 9.81"/><polygon class="cls-27" points="56.72 9.81 23.4 40.01 23.4 39.03 55.65 9.81 56.72 9.81"/><polygon class="cls-28" points="57.8 9.81 23.4 40.98 23.4 40.01 56.72 9.81 57.8 9.81"/><polygon class="cls-29" points="58.88 9.81 23.4 41.95 23.4 40.98 57.8 9.81 58.88 9.81"/><polygon class="cls-30" points="59.95 9.81 23.4 42.93 23.4 41.95 58.88 9.81 59.95 9.81"/><polygon class="cls-31" points="61.03 9.81 23.4 43.9 23.4 42.93 59.95 9.81 61.03 9.81"/><polygon class="cls-32" points="62.1 9.81 23.4 44.88 23.4 43.9 61.03 9.81 62.1 9.81"/><polygon class="cls-33" points="63.18 9.81 23.4 45.85 23.4 44.88 62.1 9.81 63.18 9.81"/><polygon class="cls-34" points="64.25 9.81 23.4 46.83 23.4 45.85 63.18 9.81 64.25 9.81"/><polygon class="cls-35" points="65.33 9.81 23.4 47.8 23.4 46.83 64.25 9.81 65.33 9.81"/><polygon class="cls-36" points="66.4 9.81 23.4 48.78 23.4 47.8 65.33 9.81 66.4 9.81"/><polygon class="cls-37" points="67.48 9.81 23.4 49.75 23.4 48.78 66.4 9.81 67.48 9.81"/><polygon class="cls-38" points="68.55 9.81 23.4 50.73 23.4 49.75 67.48 9.81 68.55 9.81"/><polygon class="cls-39" points="69.63 9.81 23.4 51.7 23.4 50.73 68.55 9.81 69.63 9.81"/><polygon class="cls-40" points="70.7 9.81 23.4 52.67 23.4 51.7 69.63 9.81 70.7 9.81"/><polygon class="cls-41" points="71.78 9.81 23.4 53.65 23.4 52.67 70.7 9.81 71.78 9.81"/><polygon class="cls-42" points="72.86 9.81 23.4 54.62 23.4 53.65 71.78 9.81 72.86 9.81"/><polygon class="cls-43" points="73.93 9.81 23.4 55.6 23.4 54.62 72.86 9.81 73.93 9.81"/><polygon class="cls-44" points="75.01 9.81 23.4 56.57 23.4 55.6 73.93 9.81 75.01 9.81"/><polygon class="cls-45" points="76.08 9.81 23.4 57.55 23.4 56.57 75.01 9.81 76.08 9.81"/><polygon class="cls-46" points="77.02 9.81 77.08 9.88 23.4 58.52 23.4 57.55 76.08 9.81 77.02 9.81"/><polygon class="cls-47" points="77.08 9.88 77.57 10.41 23.4 59.5 23.4 58.52 77.08 9.88"/><polygon class="cls-48" points="77.57 10.41 78.05 10.95 23.4 60.47 23.4 59.5 77.57 10.41"/><polygon class="cls-49" points="78.05 10.95 78.54 11.48 23.4 61.45 23.4 60.47 78.05 10.95"/><polygon class="cls-50" points="78.54 11.48 79.02 12.02 23.4 62.42 23.4 61.45 78.54 11.48"/><polygon class="cls-51" points="79.02 12.02 79.29 12.31 79.29 12.75 23.4 63.39 23.4 62.42 79.02 12.02"/><polygon class="cls-52" points="79.29 13.73 23.4 64.37 23.4 63.39 79.29 12.75 79.29 13.73"/><polygon class="cls-53" points="79.29 14.7 23.44 65.31 23.4 65.31 23.4 64.37 79.29 13.73 79.29 14.7"/><polygon class="cls-54" points="79.29 15.68 24.51 65.31 23.44 65.31 79.29 14.7 79.29 15.68"/><polygon class="cls-55" points="79.29 16.65 25.59 65.31 24.51 65.31 79.29 15.68 79.29 16.65"/><polygon class="cls-56" points="79.29 17.62 26.66 65.31 25.59 65.31 79.29 16.65 79.29 17.62"/><polygon class="cls-57" points="79.29 18.6 27.74 65.31 26.66 65.31 79.29 17.62 79.29 18.6"/><polygon class="cls-58" points="79.29 19.57 28.81 65.31 27.74 65.31 79.29 18.6 79.29 19.57"/><polygon class="cls-59" points="79.29 20.55 29.89 65.31 28.81 65.31 79.29 19.57 79.29 20.55"/><polygon class="cls-60" points="79.29 21.52 30.96 65.31 29.89 65.31 79.29 20.55 79.29 21.52"/><polygon class="cls-61" points="79.29 22.5 32.04 65.31 30.96 65.31 79.29 21.52 79.29 22.5"/><polygon class="cls-62" points="79.29 23.47 33.12 65.31 32.04 65.31 79.29 22.5 79.29 23.47"/><polygon class="cls-63" points="79.29 24.45 34.19 65.31 33.12 65.31 79.29 23.47 79.29 24.45"/><polygon class="cls-64" points="79.29 25.42 35.27 65.31 34.19 65.31 79.29 24.45 79.29 25.42"/><polygon class="cls-65" points="79.29 26.39 36.34 65.31 35.27 65.31 79.29 25.42 79.29 26.39"/><polygon class="cls-66" points="79.29 27.37 37.42 65.31 36.34 65.31 79.29 26.39 79.29 27.37"/><polygon class="cls-67" points="79.29 28.34 38.49 65.31 37.42 65.31 79.29 27.37 79.29 28.34"/><polygon class="cls-68" points="79.29 29.32 39.57 65.31 38.49 65.31 79.29 28.34 79.29 29.32"/><polygon class="cls-69" points="79.29 30.29 40.64 65.31 39.57 65.31 79.29 29.32 79.29 30.29"/><polygon class="cls-70" points="79.29 31.27 41.72 65.31 40.64 65.31 79.29 30.29 79.29 31.27"/><polygon class="cls-71" points="79.29 32.24 42.8 65.31 41.72 65.31 79.29 31.27 79.29 32.24"/><polygon class="cls-72" points="79.29 33.22 43.87 65.31 42.8 65.31 79.29 32.24 79.29 33.22"/><polygon class="cls-73" points="79.29 34.19 44.95 65.31 43.87 65.31 79.29 33.22 79.29 34.19"/><polygon class="cls-74" points="79.29 35.16 46.02 65.31 44.95 65.31 79.29 34.19 79.29 35.16"/><polygon class="cls-75" points="79.29 36.14 47.1 65.31 46.02 65.31 79.29 35.16 79.29 36.14"/><polygon class="cls-76" points="79.29 37.11 48.17 65.31 47.1 65.31 79.29 36.14 79.29 37.11"/><polygon class="cls-77" points="79.29 38.09 49.25 65.31 48.17 65.31 79.29 37.11 79.29 38.09"/><polygon class="cls-78" points="79.29 39.06 50.32 65.31 49.25 65.31 79.29 38.09 79.29 39.06"/><polygon class="cls-79" points="79.29 40.04 51.4 65.31 50.32 65.31 79.29 39.06 79.29 40.04"/><polygon class="cls-80" points="79.29 41.01 52.47 65.31 51.4 65.31 79.29 40.04 79.29 41.01"/><polygon class="cls-81" points="79.29 41.99 53.55 65.31 52.47 65.31 79.29 41.01 79.29 41.99"/><polygon class="cls-82" points="79.29 42.96 54.62 65.31 53.55 65.31 79.29 41.99 79.29 42.96"/><polygon class="cls-83" points="79.29 43.94 55.7 65.31 54.62 65.31 79.29 42.96 79.29 43.94"/><polygon class="cls-84" points="79.29 44.91 56.77 65.31 55.7 65.31 79.29 43.94 79.29 44.91"/><polygon class="cls-85" points="79.29 45.88 57.85 65.31 56.77 65.31 79.29 44.91 79.29 45.88"/><polygon class="cls-86" points="79.29 46.86 58.93 65.31 57.85 65.31 79.29 45.88 79.29 46.86"/><polygon class="cls-87" points="79.29 47.83 60 65.31 58.93 65.31 79.29 46.86 79.29 47.83"/><polygon class="cls-88" points="79.29 48.81 61.08 65.31 60 65.31 79.29 47.83 79.29 48.81"/><polygon class="cls-89" points="79.29 49.78 62.15 65.31 61.08 65.31 79.29 48.81 79.29 49.78"/><polygon class="cls-90" points="79.29 50.76 63.23 65.31 62.15 65.31 79.29 49.78 79.29 50.76"/><polygon class="cls-91" points="79.29 51.73 64.3 65.31 63.23 65.31 79.29 50.76 79.29 51.73"/><polygon class="cls-92" points="79.29 52.71 65.38 65.31 64.3 65.31 79.29 51.73 79.29 52.71"/><polygon class="cls-93" points="79.29 53.68 66.45 65.31 65.38 65.31 79.29 52.71 79.29 53.68"/><polygon class="cls-94" points="79.29 54.66 67.53 65.31 66.45 65.31 79.29 53.68 79.29 54.66"/><polygon class="cls-95" points="79.29 55.63 68.61 65.31 67.53 65.31 79.29 54.66 79.29 55.63"/><polygon class="cls-96" points="79.29 56.6 69.68 65.31 68.61 65.31 79.29 55.63 79.29 56.6"/><polygon class="cls-97" points="79.29 57.58 70.76 65.31 69.68 65.31 79.29 56.6 79.29 57.58"/><polygon class="cls-98" points="79.29 58.55 71.83 65.31 70.76 65.31 79.29 57.58 79.29 58.55"/><polygon class="cls-99" points="79.29 59.53 72.91 65.31 71.83 65.31 79.29 58.55 79.29 59.53"/><polygon class="cls-100" points="79.29 60.5 73.98 65.31 72.91 65.31 79.29 59.53 79.29 60.5"/><polygon class="cls-101" points="79.29 61.48 75.06 65.31 73.98 65.31 79.29 60.5 79.29 61.48"/><polygon class="cls-102" points="79.29 62.45 76.13 65.31 75.06 65.31 79.29 61.48 79.29 62.45"/><polygon class="cls-103" points="79.29 63.42 77.21 65.31 76.13 65.31 79.29 62.45 79.29 63.42"/><polygon class="cls-104" points="79.29 64.4 78.28 65.31 77.21 65.31 79.29 63.42 79.29 64.4"/><polygon class="cls-104" points="78.28 65.31 79.29 64.4 79.29 65.31 78.28 65.31"/></g><path class="cls-105" d="M79.79,22.05V63.67a2.14,2.14,0,1,1-4.28,0V22a8.48,8.48,0,0,0-8.46-8.46H35.64a8.48,8.48,0,0,0-8.47,8.47V63.67a2.14,2.14,0,1,1-4.27,0V22A12.74,12.74,0,0,1,35.63,9.31H67.05A12.75,12.75,0,0,1,79.79,22.05Z"/><g class="cls-106"><polygon class="cls-40" points="43.4 16.05 42.51 16.86 42.51 16.05 43.4 16.05"/><polygon class="cls-41" points="44.59 16.05 42.51 17.94 42.51 16.86 43.4 16.05 44.59 16.05"/><polygon class="cls-42" points="45.78 16.05 42.51 19.02 42.51 17.94 44.59 16.05 45.78 16.05"/><polygon class="cls-43" points="46.97 16.05 42.51 20.1 42.51 19.02 45.78 16.05 46.97 16.05"/><polygon class="cls-44" points="48.16 16.05 42.51 21.18 42.51 20.1 46.97 16.05 48.16 16.05"/><polygon class="cls-45" points="49.35 16.05 42.57 22.2 42.51 22.2 42.51 21.18 48.16 16.05 49.35 16.05"/><polygon class="cls-46" points="50.54 16.05 43.76 22.2 42.57 22.2 49.35 16.05 50.54 16.05"/><polygon class="cls-47" points="51.73 16.05 44.95 22.2 43.76 22.2 50.54 16.05 51.73 16.05"/><polygon class="cls-48" points="52.92 16.05 46.14 22.2 44.95 22.2 51.73 16.05 52.92 16.05"/><polygon class="cls-49" points="54.11 16.05 47.33 22.2 46.14 22.2 52.92 16.05 54.11 16.05"/><polygon class="cls-50" points="55.3 16.05 48.52 22.2 47.33 22.2 54.11 16.05 55.3 16.05"/><polygon class="cls-51" points="56.49 16.05 49.71 22.2 48.52 22.2 55.3 16.05 56.49 16.05"/><polygon class="cls-52" points="57.68 16.05 50.9 22.2 49.71 22.2 56.49 16.05 57.68 16.05"/><polygon class="cls-53" points="58.87 16.05 52.09 22.2 50.9 22.2 57.68 16.05 58.87 16.05"/><polygon class="cls-54" points="60.06 16.05 53.28 22.2 52.09 22.2 58.87 16.05 60.06 16.05"/><polygon class="cls-55" points="60.17 17.03 54.47 22.2 53.28 22.2 60.06 16.05 60.17 16.05 60.17 17.03"/><polygon class="cls-56" points="60.17 18.11 55.66 22.2 54.47 22.2 60.17 17.03 60.17 18.11"/><polygon class="cls-57" points="60.17 19.19 56.85 22.2 55.66 22.2 60.17 18.11 60.17 19.19"/><polygon class="cls-58" points="60.17 20.26 58.04 22.2 56.85 22.2 60.17 19.19 60.17 20.26"/><polygon class="cls-59" points="60.17 21.34 59.23 22.2 58.04 22.2 60.17 20.26 60.17 21.34"/><polygon class="cls-60" points="59.23 22.2 60.17 21.34 60.17 22.2 59.23 22.2"/></g></svg>