<svg id="Capa_1" data-name="Capa 1" xmlns="http://www.w3.org/2000/svg" xmlns:xlink="http://www.w3.org/1999/xlink" viewBox="0 0 165.97 197"><defs><style>.cls-1{fill:url(#Degradado_sin_nombre_18);}.cls-2{fill:url(#Degradado_sin_nombre_18-2);}</style><linearGradient id="Degradado_sin_nombre_18" x1="-17.78" y1="-8.47" x2="162.64" y2="159.62" gradientUnits="userSpaceOnUse"><stop offset="0" stop-color="#3fc1ff"/><stop offset="1" stop-color="#005cbf"/></linearGradient><linearGradient id="Degradado_sin_nombre_18-2" x1="-19.86" y1="-6.24" x2="160.56" y2="161.86" xlink:href="#Degradado_sin_nombre_18"/></defs><g id="qPVzbj"><path class="cls-1" d="M81.08,0h3.84c2.39.84,4,2.72,5.8,4.35a89.57,89.57,0,0,0,47.42,22.49,135.43,135.43,0,0,0,19.71,1.54c4.51,0,7.53,2.79,7.62,7,.44,18.77,1,37.55-.39,56.31a156.33,156.33,0,0,1-5.48,31.75c-7.36,25.47-22.11,45.37-44.65,59.46a153.65,153.65,0,0,1-30,14.15H80.69c-.82-.36-1.62-.76-2.46-1.06a142.36,142.36,0,0,1-28.62-14,99.93,99.93,0,0,1-41-51.59c-5.78-16.18-7.93-33-8.39-50q-.61-22,.23-44c.2-5.34,2.83-7.93,8.23-7.93a123.24,123.24,0,0,0,14.76-.89C44,25,62.08,17.07,77.1,2.64A11.45,11.45,0,0,1,81.08,0Zm70.3,61.65c0-5.7,0-11.41,0-17.11,0-1.42-.45-2-2-2.17-4.33-.37-8.67-.77-13-1.39A102,102,0,0,1,85.21,18.41c-2.22-1.83-2.21-1.83-4.39,0a101.48,101.48,0,0,1-35.12,19,129.06,129.06,0,0,1-29.1,5c-1.48.1-2,.68-2,2.13,0,12.63-.68,25.24,0,37.88a181.58,181.58,0,0,0,4,31.6c4.07,17.76,12.16,33.26,25.61,45.77C55,169.88,67.78,176.78,81.58,182a4.74,4.74,0,0,0,3.53-.26,130,130,0,0,0,20.27-9.69c13.11-7.84,23.94-18,31.71-31.25,9-15.43,12.42-32.42,13.87-49.94A219,219,0,0,0,151.38,61.65Z"/><path class="cls-2" d="M118.69,78.59c0,2.8-.74,4.54-2.17,6q-19,19-38,37.93a6.81,6.81,0,0,1-10.15,0q-9.57-9.33-18.91-18.9a7.05,7.05,0,0,1-.06-10.18c2.86-2.77,7.1-2.73,10.18.25,4.06,3.93,8,8,12,11.94,1.84,1.84,1.85,1.85,3.75,0q15.18-15.16,30.33-30.34c2.22-2.22,4.68-3.58,7.93-2.61C116.62,73.53,118.69,76.28,118.69,78.59Z"/></g></svg>