<svg id="Capa_1" data-name="Capa 1" xmlns="http://www.w3.org/2000/svg" xmlns:xlink="http://www.w3.org/1999/xlink" viewBox="0 0 203.75 212.44"><defs><style>.cls-1{fill:url(#Degradado_sin_nombre_18);}.cls-2{fill:url(#Degradado_sin_nombre_18-2);}.cls-3{fill:url(#Degradado_sin_nombre_18-3);}.cls-4{fill:url(#Degradado_sin_nombre_18-4);}.cls-5{fill:url(#Degradado_sin_nombre_18-5);}.cls-6{fill:url(#Degradado_sin_nombre_18-6);}.cls-7{fill:url(#Degradado_sin_nombre_18-7);}.cls-8{fill:url(#Degradado_sin_nombre_18-8);}.cls-9{fill:url(#Degradado_sin_nombre_18-9);}.cls-10{fill:url(#Degradado_sin_nombre_18-10);}.cls-11{fill:url(#Degradado_sin_nombre_18-11);}.cls-12{fill:url(#Degradado_sin_nombre_18-12);}.cls-13{fill:url(#Degradado_sin_nombre_18-13);}.cls-14{fill:url(#Degradado_sin_nombre_18-14);}.cls-15{fill:url(#Degradado_sin_nombre_18-15);}.cls-16{fill:url(#Degradado_sin_nombre_18-16);}</style><linearGradient id="Degradado_sin_nombre_18" x1="-36.44" y1="-37.01" x2="180.96" y2="227.46" gradientUnits="userSpaceOnUse"><stop offset="0" stop-color="#3fc1ff"/><stop offset="1" stop-color="#005cbf"/></linearGradient><linearGradient id="Degradado_sin_nombre_18-2" x1="-21.94" y1="-48.93" x2="195.46" y2="215.54" xlink:href="#Degradado_sin_nombre_18"/><linearGradient id="Degradado_sin_nombre_18-3" x1="-7.71" y1="-60.62" x2="209.69" y2="203.84" xlink:href="#Degradado_sin_nombre_18"/><linearGradient id="Degradado_sin_nombre_18-4" x1="4.55" y1="-70.71" x2="221.95" y2="193.76" xlink:href="#Degradado_sin_nombre_18"/><linearGradient id="Degradado_sin_nombre_18-5" x1="12.83" y1="-77.51" x2="230.23" y2="186.96" xlink:href="#Degradado_sin_nombre_18"/><linearGradient id="Degradado_sin_nombre_18-6" x1="28.97" y1="-90.77" x2="246.37" y2="173.69" xlink:href="#Degradado_sin_nombre_18"/><linearGradient id="Degradado_sin_nombre_18-7" x1="48.17" y1="-106.56" x2="265.57" y2="157.91" xlink:href="#Degradado_sin_nombre_18"/><linearGradient id="Degradado_sin_nombre_18-8" x1="61.93" y1="-117.87" x2="279.33" y2="146.6" xlink:href="#Degradado_sin_nombre_18"/><linearGradient id="Degradado_sin_nombre_18-9" x1="-103.31" y1="17.96" x2="114.09" y2="282.43" xlink:href="#Degradado_sin_nombre_18"/><linearGradient id="Degradado_sin_nombre_18-10" x1="-86.97" y1="4.53" x2="130.43" y2="269" xlink:href="#Degradado_sin_nombre_18"/><linearGradient id="Degradado_sin_nombre_18-11" x1="-74.05" y1="-6.09" x2="143.35" y2="258.38" xlink:href="#Degradado_sin_nombre_18"/><linearGradient id="Degradado_sin_nombre_18-12" x1="-60.66" y1="-17.1" x2="156.74" y2="247.37" xlink:href="#Degradado_sin_nombre_18"/><linearGradient id="Degradado_sin_nombre_18-13" x1="-47.52" y1="-27.9" x2="169.88" y2="236.56" xlink:href="#Degradado_sin_nombre_18"/><linearGradient id="Degradado_sin_nombre_18-14" x1="51.02" y1="-108.91" x2="268.42" y2="155.56" xlink:href="#Degradado_sin_nombre_18"/><linearGradient id="Degradado_sin_nombre_18-15" x1="-65.81" y1="-12.87" x2="151.59" y2="251.6" xlink:href="#Degradado_sin_nombre_18"/><linearGradient id="Degradado_sin_nombre_18-16" x1="-6.57" y1="-61.56" x2="210.83" y2="202.9" xlink:href="#Degradado_sin_nombre_18"/></defs><path class="cls-1" d="M13.91,31.13,8.24,20.83H6.65v10.3H0V3.85H11.15A12.29,12.29,0,0,1,16.65,5a7.83,7.83,0,0,1,3.4,3.09,8.66,8.66,0,0,1,1.13,4.38,8.05,8.05,0,0,1-1.54,4.85,8.25,8.25,0,0,1-4.52,3l6.29,10.8Zm-7.26-15h4.11a3.74,3.74,0,0,0,2.74-.9,3.35,3.35,0,0,0,.92-2.52,3.27,3.27,0,0,0-.92-2.45,3.74,3.74,0,0,0-2.74-.89H6.65Z"/><path class="cls-2" d="M45.66,21.88h-15A4.56,4.56,0,0,0,31.92,25,4,4,0,0,0,34.74,26a3.49,3.49,0,0,0,3.46-2.1h7.07a9.65,9.65,0,0,1-2,3.85,9.82,9.82,0,0,1-3.55,2.68,11.41,11.41,0,0,1-4.78,1,11.61,11.61,0,0,1-5.68-1.36,9.62,9.62,0,0,1-3.88-3.89,11.89,11.89,0,0,1-1.4-5.9,12.12,12.12,0,0,1,1.38-5.91,9.58,9.58,0,0,1,3.86-3.89A11.82,11.82,0,0,1,35,9.13a11.6,11.6,0,0,1,5.59,1.32,9.52,9.52,0,0,1,3.83,3.77,11.48,11.48,0,0,1,1.38,5.72A16.41,16.41,0,0,1,45.66,21.88ZM39,18.19a3.41,3.41,0,0,0-1.17-2.72,4.25,4.25,0,0,0-2.91-1,4.18,4.18,0,0,0-2.82,1,4.34,4.34,0,0,0-1.42,2.76Z"/><path class="cls-3" d="M49.34,14.38a9.59,9.59,0,0,1,3.84-3.89,11.61,11.61,0,0,1,5.66-1.36,10.79,10.79,0,0,1,6.82,2.14,10.12,10.12,0,0,1,3.59,6H62.18a3.41,3.41,0,0,0-3.46-2.48,3.48,3.48,0,0,0-2.91,1.41,6.55,6.55,0,0,0-1.09,4.07,6.54,6.54,0,0,0,1.09,4.06,3.48,3.48,0,0,0,2.91,1.42,3.41,3.41,0,0,0,3.46-2.49h7.07a10.15,10.15,0,0,1-3.61,6,10.66,10.66,0,0,1-6.8,2.18,11.5,11.5,0,0,1-5.66-1.36,9.53,9.53,0,0,1-3.84-3.89A12.1,12.1,0,0,1,48,20.29,12.12,12.12,0,0,1,49.34,14.38Z"/><path class="cls-4" d="M73.28,6.16a3.35,3.35,0,0,1-1.11-2.55A3.38,3.38,0,0,1,73.28,1,4.42,4.42,0,0,1,79,1a3.38,3.38,0,0,1,1.11,2.58A3.35,3.35,0,0,1,79,6.16a4.42,4.42,0,0,1-5.67,0Zm6.16,3.28V31.13H72.79V9.44Z"/><path class="cls-5" d="M93.58,10.07a8.29,8.29,0,0,1,4-.94,9,9,0,0,1,4.86,1.36,9.47,9.47,0,0,1,3.44,3.89,13,13,0,0,1,1.26,5.87,13,13,0,0,1-1.26,5.88,9.52,9.52,0,0,1-3.44,3.93,8.88,8.88,0,0,1-4.86,1.38,8.46,8.46,0,0,1-4-.91A7.09,7.09,0,0,1,90.9,28.1v3H84.25V2.37H90.9V12.51A6.83,6.83,0,0,1,93.58,10.07ZM99,16.34a4.57,4.57,0,0,0-3.4-1.42,4.48,4.48,0,0,0-3.36,1.44,5.44,5.44,0,0,0-1.38,3.93,5.44,5.44,0,0,0,1.38,3.92,4.64,4.64,0,0,0,6.74,0,5.41,5.41,0,0,0,1.4-3.94A5.38,5.38,0,0,0,99,16.34Z"/><path class="cls-6" d="M131,21.88h-15a4.47,4.47,0,0,0,1.3,3.09A4,4,0,0,0,120.05,26a3.48,3.48,0,0,0,3.45-2.1h7.08a9.74,9.74,0,0,1-5.52,6.53,11.41,11.41,0,0,1-4.78,1,11.54,11.54,0,0,1-5.67-1.36,9.65,9.65,0,0,1-3.89-3.89,12,12,0,0,1-1.4-5.9,12.12,12.12,0,0,1,1.38-5.91,9.6,9.6,0,0,1,3.87-3.89,11.76,11.76,0,0,1,5.71-1.36,11.64,11.64,0,0,1,5.6,1.32,9.49,9.49,0,0,1,3.82,3.77,11.48,11.48,0,0,1,1.38,5.72A18.77,18.77,0,0,1,131,21.88Zm-6.69-3.69a3.43,3.43,0,0,0-1.16-2.72,4.27,4.27,0,0,0-2.92-1,4.22,4.22,0,0,0-2.82,1A4.33,4.33,0,0,0,116,18.19Z"/><path class="cls-7" d="M163.14,21.88h-15A4.52,4.52,0,0,0,149.41,25,4,4,0,0,0,152.22,26a3.49,3.49,0,0,0,3.46-2.1h7.08a9.8,9.8,0,0,1-5.52,6.53,11.41,11.41,0,0,1-4.78,1,11.61,11.61,0,0,1-5.68-1.36,9.62,9.62,0,0,1-3.88-3.89,11.89,11.89,0,0,1-1.4-5.9,12.12,12.12,0,0,1,1.38-5.91,9.64,9.64,0,0,1,3.86-3.89,11.82,11.82,0,0,1,5.72-1.36,11.57,11.57,0,0,1,5.59,1.32,9.46,9.46,0,0,1,3.83,3.77,11.48,11.48,0,0,1,1.38,5.72A16.41,16.41,0,0,1,163.14,21.88Zm-6.68-3.69a3.41,3.41,0,0,0-1.17-2.72,4.64,4.64,0,0,0-5.73,0,4.34,4.34,0,0,0-1.42,2.76Z"/><path class="cls-8" d="M186.05,11.68a9.59,9.59,0,0,1,2.28,6.78V31.13h-6.61V19.35A4.73,4.73,0,0,0,180.59,16a4.43,4.43,0,0,0-6.06,0,4.78,4.78,0,0,0-1.13,3.38V31.13h-6.64V9.44h6.64v2.88a7,7,0,0,1,2.72-2.27A8.64,8.64,0,0,1,180,9.21,7.84,7.84,0,0,1,186.05,11.68Z"/><path class="cls-9" d="M58,192.68a9.63,9.63,0,0,1,2.26,6.78v12.67H53.61V200.35A4.73,4.73,0,0,0,52.48,197a4.43,4.43,0,0,0-6.06,0,4.78,4.78,0,0,0-1.13,3.38v11.78H38.65V183.37h6.64v10a7.18,7.18,0,0,1,2.76-2.29,8.86,8.86,0,0,1,3.93-.86A7.68,7.68,0,0,1,58,192.68Z"/><path class="cls-10" d="M69,211.08a9.92,9.92,0,0,1-4-3.89,11.6,11.6,0,0,1-1.46-5.9A11.48,11.48,0,0,1,65,195.4a10,10,0,0,1,4-3.91,12.84,12.84,0,0,1,11.5,0,10,10,0,0,1,4,3.91,11.48,11.48,0,0,1,1.48,5.89,11.35,11.35,0,0,1-1.5,5.88,10,10,0,0,1-4.08,3.91,12.13,12.13,0,0,1-5.77,1.36A11.94,11.94,0,0,1,69,211.08Zm9-5.79a5.57,5.57,0,0,0,1.34-4,5.68,5.68,0,0,0-1.3-4,4.41,4.41,0,0,0-6.43,0,6.94,6.94,0,0,0,0,8,4.08,4.08,0,0,0,3.16,1.4A4.36,4.36,0,0,0,78,205.29Z"/><path class="cls-11" d="M99.16,191.24a7.46,7.46,0,0,1,3.88-1v7h-1.82a5.61,5.61,0,0,0-3.73,1.07c-.83.72-1.25,2-1.25,3.75v10.07H89.6V190.44h6.64v3.62A8.83,8.83,0,0,1,99.16,191.24Z"/><path class="cls-12" d="M106.17,195.38a9.47,9.47,0,0,1,3.44-3.89,9,9,0,0,1,4.86-1.36,8.23,8.23,0,0,1,4,.94,6.84,6.84,0,0,1,2.66,2.44v-3.07h6.65v21.69h-6.65v-3.07a7.06,7.06,0,0,1-2.7,2.45,8.34,8.34,0,0,1-4,.93,8.82,8.82,0,0,1-4.82-1.38,9.52,9.52,0,0,1-3.44-3.93,14.33,14.33,0,0,1,0-11.75Zm13.6,2a4.48,4.48,0,0,0-3.36-1.44,4.53,4.53,0,0,0-3.36,1.42,5.38,5.38,0,0,0-1.38,3.91,5.49,5.49,0,0,0,1.38,3.94,4.62,4.62,0,0,0,6.72,0,6.27,6.27,0,0,0,0-7.85Z"/><path class="cls-13" d="M136.39,211.47a8.73,8.73,0,0,1-3.5-2.66,7.1,7.1,0,0,1-1.44-3.79H138a2.52,2.52,0,0,0,1,1.82,3.69,3.69,0,0,0,2.29.7,3.34,3.34,0,0,0,1.93-.48,1.51,1.51,0,0,0,.68-1.27,1.45,1.45,0,0,0-1-1.37,20.14,20.14,0,0,0-3.15-1,29.46,29.46,0,0,1-3.89-1.14,6.65,6.65,0,0,1-2.68-1.91,5.19,5.19,0,0,1-1.13-3.51,6,6,0,0,1,1-3.4,6.89,6.89,0,0,1,3-2.43,11.55,11.55,0,0,1,4.76-.9,9.61,9.61,0,0,1,6.44,2,7.94,7.94,0,0,1,2.7,5.37H144a2.71,2.71,0,0,0-1-1.79,3.45,3.45,0,0,0-2.2-.66,3.11,3.11,0,0,0-1.79.44,1.45,1.45,0,0,0-.62,1.23,1.5,1.5,0,0,0,1,1.4,15.88,15.88,0,0,0,3.09.93,35.18,35.18,0,0,1,3.93,1.22,6.85,6.85,0,0,1,2.66,2,5.47,5.47,0,0,1,1.18,3.59,5.64,5.64,0,0,1-1.07,3.4,6.93,6.93,0,0,1-3.07,2.35,11.71,11.71,0,0,1-4.64.86A12.43,12.43,0,0,1,136.39,211.47Z"/><path class="cls-14" d="M201.57,62.12l2.18,4L199,67.75l4.78,1.64-2.33,4.12-3.89-3.42,1,5H194l.93-5L191,73.54l-2.41-4.19,4.78-1.67-4.74-1.56,2.21-4,4.05,3.38-1-5.13h4.62l-1,5.13Z"/><path class="cls-15" d="M13.62,143.45q14.25-11.79,22.47-19.35A92.81,92.81,0,0,0,50,108.24q5.67-8.3,5.67-16.15,0-6-2.76-9.3c-1.85-2.24-4.61-3.35-8.3-3.35A10.23,10.23,0,0,0,36,83.58q-3.14,4.15-3.13,11.72h-24q.29-12.37,5.31-20.66A30.81,30.81,0,0,1,27.37,62.42a41.72,41.72,0,0,1,18.25-3.93q17.31,0,26.12,8.87t8.8,23.14q0,15.56-10.62,28.87a156.26,156.26,0,0,1-27.06,26H82.14v20.22h-73V147.08C12.4,144.47,13.91,143.25,13.62,143.45Z"/><path class="cls-16" d="M93.63,148.1V128l46-65.76h27.79v64.3h11.92V148.1H167.39V167H142.51V148.1Zm50.62-58.48-24.43,36.95h24.43Z"/></svg>