<svg id="Capa_1" data-name="Capa 1" xmlns="http://www.w3.org/2000/svg" xmlns:xlink="http://www.w3.org/1999/xlink" viewBox="0 0 155.22 160.78"><defs><style>.cls-1{fill:url(#Degradado_sin_nombre_18);}.cls-2{fill:url(#Degradado_sin_nombre_18-2);}.cls-3{fill:url(#Degradado_sin_nombre_18-3);}.cls-4{fill:url(#Degradado_sin_nombre_18-4);}.cls-5{fill:url(#Degradado_sin_nombre_18-5);}.cls-6{fill:url(#Degradado_sin_nombre_18-6);}.cls-7{fill:url(#Degradado_sin_nombre_18-7);}.cls-8{fill:url(#Degradado_sin_nombre_18-8);}.cls-9{fill:url(#Degradado_sin_nombre_18-9);}.cls-10{fill:url(#Degradado_sin_nombre_18-10);}</style><linearGradient id="Degradado_sin_nombre_18" x1="-25.77" y1="-12.1" x2="127.76" y2="135.83" gradientUnits="userSpaceOnUse"><stop offset="0" stop-color="#3fc1ff"/><stop offset="1" stop-color="#005cbf"/></linearGradient><linearGradient id="Degradado_sin_nombre_18-2" x1="-2.19" y1="-36.57" x2="151.34" y2="111.36" xlink:href="#Degradado_sin_nombre_18"/><linearGradient id="Degradado_sin_nombre_18-3" x1="-91.17" y1="55.79" x2="62.36" y2="203.71" xlink:href="#Degradado_sin_nombre_18"/><linearGradient id="Degradado_sin_nombre_18-4" x1="-84.56" y1="48.92" x2="68.97" y2="196.84" xlink:href="#Degradado_sin_nombre_18"/><linearGradient id="Degradado_sin_nombre_18-5" x1="-71.69" y1="35.56" x2="81.84" y2="183.49" xlink:href="#Degradado_sin_nombre_18"/><linearGradient id="Degradado_sin_nombre_18-6" x1="-63.81" y1="27.39" x2="89.72" y2="175.31" xlink:href="#Degradado_sin_nombre_18"/><linearGradient id="Degradado_sin_nombre_18-7" x1="-53.62" y1="16.82" x2="99.9" y2="164.74" xlink:href="#Degradado_sin_nombre_18"/><linearGradient id="Degradado_sin_nombre_18-8" x1="-41.74" y1="4.48" x2="111.79" y2="152.4" xlink:href="#Degradado_sin_nombre_18"/><linearGradient id="Degradado_sin_nombre_18-9" x1="-33.38" y1="-4.19" x2="120.14" y2="143.73" xlink:href="#Degradado_sin_nombre_18"/><linearGradient id="Degradado_sin_nombre_18-10" x1="-17.8" y1="-20.36" x2="135.72" y2="127.56" xlink:href="#Degradado_sin_nombre_18"/></defs><path class="cls-1" d="M12,14.6Q21.75,0,43.59,0T75.23,14.6Q85,29.21,85,54.58q0,25.67-9.81,40.27t-31.64,14.6q-21.84,0-31.64-14.6T2.14,54.58Q2.14,29.2,12,14.6ZM57,31.64q-3.25-8-13.42-8t-13.43,8q-3.24,8-3.24,22.94A96,96,0,0,0,28.1,71.17a21.13,21.13,0,0,0,4.79,10.62q3.61,4.06,10.7,4.06t10.69-4.06a21.13,21.13,0,0,0,4.79-10.62,96,96,0,0,0,1.18-16.59Q60.25,39.69,57,31.64Z"/><path class="cls-2" d="M99.54,63.25a13.17,13.17,0,0,1,17,0q3.25,3.1,3.25,8.84t-3.25,8.85a13.2,13.2,0,0,1-17,0q-3.3-3.12-3.3-8.85T99.54,63.25Zm5.06,8.84q0,4.81,3.39,4.82a3,3,0,0,0,2.55-1.21,5.91,5.91,0,0,0,.92-3.61q0-4.87-3.47-4.88T104.6,72.09Zm39.7-11.18-27.25,49.83H105.37l27.25-49.83Zm-11.11,29.8a13.11,13.11,0,0,1,17,0q3.26,3.11,3.26,8.84c0,3.83-1.09,6.77-3.26,8.85a13.14,13.14,0,0,1-17,0c-2.17-2.08-3.26-5-3.26-8.85S131,92.78,133.19,90.71Zm5.91,5.16a6.24,6.24,0,0,0-.89,3.68c0,3.21,1.14,4.82,3.4,4.82a3,3,0,0,0,2.55-1.21,5.91,5.91,0,0,0,.92-3.61,6.07,6.07,0,0,0-.92-3.64,3,3,0,0,0-2.55-1.24A2.93,2.93,0,0,0,139.1,95.87Z"/><path class="cls-3" d="M6.65,133.19v27.28H0V133.19Z"/><path class="cls-4" d="M30.76,141A9.58,9.58,0,0,1,33,147.8v12.67h-6.6V148.69a4.78,4.78,0,0,0-1.13-3.38,4,4,0,0,0-3-1.2,4,4,0,0,0-3,1.2,4.73,4.73,0,0,0-1.13,3.38v11.78H11.46V138.78h6.65v2.88a6.91,6.91,0,0,1,2.72-2.27,8.61,8.61,0,0,1,3.85-.84A7.86,7.86,0,0,1,30.76,141Z"/><path class="cls-5" d="M49.74,154.84v5.63H46.36a8.26,8.26,0,0,1-5.63-1.77q-2-1.77-2-5.77V144.3H36.06v-5.52h2.65V133.5h6.64v5.28h4.36v5.52H45.35V153a1.83,1.83,0,0,0,.47,1.4,2.3,2.3,0,0,0,1.55.43Z"/><path class="cls-6" d="M73.76,151.22h-15a4.51,4.51,0,0,0,1.3,3.09,4,4,0,0,0,2.82,1.07,3.49,3.49,0,0,0,3.46-2.1h7.07a9.59,9.59,0,0,1-2,3.85,9.86,9.86,0,0,1-3.56,2.68,11.34,11.34,0,0,1-4.78,1,11.6,11.6,0,0,1-5.67-1.36,9.71,9.71,0,0,1-3.89-3.89,13.24,13.24,0,0,1,0-11.81,9.6,9.6,0,0,1,3.87-3.89,11.78,11.78,0,0,1,5.71-1.36,11.5,11.5,0,0,1,5.6,1.33,9.49,9.49,0,0,1,3.83,3.76,11.48,11.48,0,0,1,1.38,5.72A16.41,16.41,0,0,1,73.76,151.22Zm-6.68-3.69a3.41,3.41,0,0,0-1.17-2.72,4.26,4.26,0,0,0-2.91-1,4.18,4.18,0,0,0-2.82,1,4.3,4.3,0,0,0-1.42,2.76Z"/><path class="cls-7" d="M86.94,139.58a7.46,7.46,0,0,1,3.88-1v7H89a5.64,5.64,0,0,0-3.74,1.06A4.8,4.8,0,0,0,84,150.4v10.07H77.38V138.78H84v3.62A8.83,8.83,0,0,1,86.94,139.58Z"/><path class="cls-8" d="M114.33,151.22h-15a4.52,4.52,0,0,0,1.31,3.09,4,4,0,0,0,2.81,1.07,3.49,3.49,0,0,0,3.46-2.1H114a9.8,9.8,0,0,1-5.52,6.53,11.41,11.41,0,0,1-4.78,1A11.61,11.61,0,0,1,98,159.42a9.62,9.62,0,0,1-3.88-3.89,11.89,11.89,0,0,1-1.4-5.9,12.12,12.12,0,0,1,1.38-5.91,9.64,9.64,0,0,1,3.86-3.89,11.82,11.82,0,0,1,5.72-1.36,11.46,11.46,0,0,1,5.59,1.33,9.43,9.43,0,0,1,3.83,3.76,11.48,11.48,0,0,1,1.38,5.72A16.41,16.41,0,0,1,114.33,151.22Zm-6.21-18-9.37,3.92v-4.58l9.37-4.51Zm-.47,14.3a3.41,3.41,0,0,0-1.17-2.72,4.25,4.25,0,0,0-2.91-1,4.2,4.2,0,0,0-2.82,1,4.34,4.34,0,0,0-1.42,2.76Z"/><path class="cls-9" d="M121.72,159.81a8.73,8.73,0,0,1-3.5-2.66,7.1,7.1,0,0,1-1.44-3.79h6.57a2.52,2.52,0,0,0,1.05,1.82,3.69,3.69,0,0,0,2.29.7,3.34,3.34,0,0,0,1.93-.48,1.51,1.51,0,0,0,.68-1.27,1.44,1.44,0,0,0-1-1.37,19.59,19.59,0,0,0-3.14-1,29.46,29.46,0,0,1-3.89-1.14,6.65,6.65,0,0,1-2.68-1.91,5.18,5.18,0,0,1-1.13-3.51,5.92,5.92,0,0,1,1-3.4,6.89,6.89,0,0,1,3-2.43,11.55,11.55,0,0,1,4.76-.9,9.61,9.61,0,0,1,6.44,2,7.94,7.94,0,0,1,2.7,5.37H129.3a2.71,2.71,0,0,0-1-1.79,3.45,3.45,0,0,0-2.2-.66,3,3,0,0,0-1.79.45,1.42,1.42,0,0,0-.62,1.22,1.5,1.5,0,0,0,1,1.4,15.88,15.88,0,0,0,3.09.93,33,33,0,0,1,3.93,1.23,6.82,6.82,0,0,1,2.66,1.94,5.47,5.47,0,0,1,1.18,3.59,5.64,5.64,0,0,1-1.07,3.4,7,7,0,0,1-3.07,2.36,11.71,11.71,0,0,1-4.64.85A12.4,12.4,0,0,1,121.72,159.81Z"/><path class="cls-10" d="M153,133.46l2.18,4-4.78,1.67,4.78,1.64-2.33,4.12L149,141.43l1,5h-4.55l.94-5-3.85,3.46-2.41-4.2,4.78-1.67-4.74-1.56,2.21-4,4.05,3.38-1-5.13H150l-1,5.13Z"/></svg>