<svg id="Capa_1" data-name="Capa 1" xmlns="http://www.w3.org/2000/svg" xmlns:xlink="http://www.w3.org/1999/xlink" viewBox="0 0 100 100"><defs><style>.cls-1{font-size:7.93px;font-family:Poppins-SemiBold, Poppins;font-weight:600;}.cls-1,.cls-3{fill:#2866d9;}.cls-2{fill:url(#Degradado_sin_nombre_18);}</style><linearGradient id="Degradado_sin_nombre_18" x1="11.37" y1="6.92" x2="73.28" y2="60.43" gradientUnits="userSpaceOnUse"><stop offset="0" stop-color="#3fc1ff"/><stop offset="1" stop-color="#005cbf"/></linearGradient></defs><text class="cls-1" transform="translate(18.21 76.79)">Emergencia SOS<tspan x="10.51" y="9.52">Vía satélite</tspan></text><path class="cls-2" d="M50,67.31a27,27,0,1,1,27-27A27,27,0,0,1,50,67.31Zm0-49a22,22,0,1,0,22,22A22,22,0,0,0,50,18.31Z"/><path class="cls-3" d="M40,44.81c-2.56,0-4.28-1.42-4.41-3.28h2.9A1.35,1.35,0,0,0,40,42.65c.76,0,1.15-.35,1.15-.77,0-1.55-5.21-.43-5.21-4,0-1.63,1.39-3,3.89-3s3.85,1.37,4,3.26H41.12a1.25,1.25,0,0,0-1.4-1.08c-.69,0-1.07.27-1.07.74,0,1.52,5.18.44,5.24,4C43.89,43.56,42.41,44.81,40,44.81Z"/><path class="cls-3" d="M50.05,44.81a4.7,4.7,0,0,1-4.94-4.92,5,5,0,1,1,4.94,4.92Zm0-2.54a2.09,2.09,0,0,0,2-2.38c0-1.63-1-2.39-2-2.39s-2,.76-2,2.39S49,42.27,50.05,42.27Z"/><path class="cls-3" d="M60.52,44.81c-2.55,0-4.27-1.42-4.41-3.28H59a1.35,1.35,0,0,0,1.48,1.12c.76,0,1.15-.35,1.15-.77,0-1.55-5.22-.43-5.22-4,0-1.63,1.39-3,3.9-3s3.84,1.37,4,3.26H61.64a1.26,1.26,0,0,0-1.41-1.08c-.68,0-1.06.27-1.06.74,0,1.52,5.18.44,5.23,4C64.4,43.56,62.93,44.81,60.52,44.81Z"/></svg>