<svg id="Capa_1" data-name="Capa 1" xmlns="http://www.w3.org/2000/svg" xmlns:xlink="http://www.w3.org/1999/xlink" viewBox="0 0 151 151.29"><defs><style>.cls-1{fill:url(#Degradado_sin_nombre_18);}.cls-2{fill:url(#Degradado_sin_nombre_18-2);}.cls-3{fill:url(#Degradado_sin_nombre_18-3);}.cls-4{fill:url(#Degradado_sin_nombre_18-4);}.cls-5{fill:url(#Degradado_sin_nombre_18-5);}</style><linearGradient id="Degradado_sin_nombre_18" x1="18.7" y1="18.06" x2="155.41" y2="155.9" gradientUnits="userSpaceOnUse"><stop offset="0" stop-color="#3fc1ff"/><stop offset="1" stop-color="#005cbf"/></linearGradient><linearGradient id="Degradado_sin_nombre_18-2" x1="18.68" y1="18.08" x2="155.4" y2="155.91" xlink:href="#Degradado_sin_nombre_18"/><linearGradient id="Degradado_sin_nombre_18-3" x1="45.64" y1="-8.66" x2="182.35" y2="129.18" xlink:href="#Degradado_sin_nombre_18"/><linearGradient id="Degradado_sin_nombre_18-4" x1="-8.26" y1="44.8" x2="128.45" y2="182.64" xlink:href="#Degradado_sin_nombre_18"/><linearGradient id="Degradado_sin_nombre_18-5" x1="18.84" y1="17.92" x2="155.56" y2="155.76" xlink:href="#Degradado_sin_nombre_18"/></defs><g id="izQtfd"><path class="cls-1" d="M118,0h7.67c1.57.36,3.17.65,4.72,1.09,3.47,1,4.11,3.54,1.57,6.13q-5,5.16-10.11,10.29c-.47.49-1.08.93-1.11,1.68-.12,2.86-.65,5.81,2.25,7.86a19.33,19.33,0,0,1,2.36,2.42,6.41,6.41,0,0,0,8.94.08c3.46-3.49,6.89-7,10.39-10.43,2-2,4.54-1.39,5.48,1.22.34,1,.58,2,.87,3V36c-.16.46-.34.92-.47,1.39a29.59,29.59,0,0,1-34.48,21.25,3,3,0,0,0-3,.89c-4.65,4.72-9.37,9.38-14,14.08-2.2,2.21-2.3,1.66.11,3.93,1.78,1.67,1.79,1.66,3.69.15a3.22,3.22,0,0,1,3.82-.41A3,3,0,0,1,108,80.57a3.48,3.48,0,0,1-1.24,2c-.9.76-.82,1.28.06,2.08,12.4,11.32,24.74,22.72,37.17,34,3.12,2.83,5.72,5.92,7.06,10v10c-2.51,6.86-7.22,11.21-14.45,12.68h-5.9A20.32,20.32,0,0,1,119.9,145q-17.1-18.72-34.33-37.33c-1.7-1.84-1.71-1.83-3.67-.42a3,3,0,0,1-4.15-.19,3.13,3.13,0,0,1-.26-4c.49-.77,1.71-1.21,1.51-2.21s-1.23-1.48-1.84-2.25a3.23,3.23,0,0,1-.39-.44C76.06,97,75.47,97,74.51,98q-7.22,7.38-14.6,14.6a3.41,3.41,0,0,0-1.08,3.61c2.5,11.64-3.22,24.61-13.39,30.76a35.35,35.35,0,0,1-11.82,4.32H26c-1.52-.34-3.07-.63-4.57-1-3.68-1.05-4.32-3.57-1.62-6.27q5.16-5.15,10.36-10.26a4,4,0,0,0,1.15-2.58c.38-3.08-.4-5.58-3-7.41a3.61,3.61,0,0,1-.94-.93,6.48,6.48,0,0,0-6.5-2.71,4.69,4.69,0,0,0-3.23,1.37c-3.38,3.49-6.81,6.92-10.25,10.36-2.53,2.52-5,1.91-6.08-1.46A45,45,0,0,1,0,124.16v-4.42c.22-1.41.37-2.82.66-4.21A29.73,29.73,0,0,1,35.51,92.62a2.8,2.8,0,0,0,2.93-.7Q48,82.23,57.72,72.63c.89-.88.81-1.43,0-2.27Q40.74,53.44,23.84,36.45a3.31,3.31,0,0,0-2.62-1.06c-1.62,0-3.24,0-4.86,0a4,4,0,0,1-3.68-2Q6.37,22.71,0,12.09V10.62C2.91,6.56,6.65,3.32,10.32,0h2.36c.42.26.83.53,1.25.78C20.29,4.6,26.63,8.46,33,12.22a4.39,4.39,0,0,1,2.48,4.44c-.1,1.42,0,2.85,0,4.28a3.36,3.36,0,0,0,1.11,2.73Q53.49,40.56,70.32,57.5c1,1,1.61,1,2.58,0Q82.28,48,91.78,38.59a3.19,3.19,0,0,0,1-3.36,29.75,29.75,0,0,1,13.49-31A35.1,35.1,0,0,1,118,0Zm5.67,6.48c-1.51-.53-4.65-.4-7.37.3a23.35,23.35,0,0,0-16.9,29.1,4.86,4.86,0,0,1-1.44,5.4c-4.18,4-8.23,8.18-12.33,12.28Q63.76,75.4,42,97.28c-2,2-3.85,2.79-6.53,1.78a13.85,13.85,0,0,0-3.9-.71,23.55,23.55,0,0,0-25.18,21,12.38,12.38,0,0,0,.09,4.07c.7-.09,1-.6,1.35-1,2.33-2.33,4.67-4.65,7-7a4.91,4.91,0,0,1,3.67-1.59c2.26,0,4.52,0,6.78,0a4.49,4.49,0,0,1,3.32,1.33q3.84,3.89,7.72,7.72a4.36,4.36,0,0,1,1.32,3.31c0,2.21-.05,4.43,0,6.64a5,5,0,0,1-1.64,3.93c-2.36,2.29-4.68,4.63-7,7-.3.3-.86.58-.7,1s.86.4,1.31.39A23,23,0,0,0,41,142.31a23.37,23.37,0,0,0,11.23-27,4.64,4.64,0,0,1,1.19-5.07q28.56-28.47,57-57A4.31,4.31,0,0,1,115.21,52,23.39,23.39,0,0,0,145.3,29c0-.34.13-.78-.19-1s-.69.25-.94.5c-2.44,2.43-4.88,4.85-7.27,7.32a5.05,5.05,0,0,1-3.8,1.65c-2.21,0-4.42,0-6.63,0A4.6,4.6,0,0,1,123,36.07c-2.44-2.56-4.92-5.09-7.39-7.63a4.48,4.48,0,0,1-1.31-3.33c0-2.26.05-4.52,0-6.78a4.82,4.82,0,0,1,1.5-3.69q3.5-3.5,6.94-7C123.09,7.27,123.56,7,123.64,6.48Zm10.44,138.66c6.93-.54,11.61-5.77,11.19-12.45-.23-3.66-2.19-6.37-4.83-8.78q-19.05-17.39-38-34.86c-1-.91-1.5-.78-2.36.1-3.53,3.62-7.1,7.21-10.73,10.73-1,1-1,1.63-.08,2.65,3.41,3.6,6.75,7.27,10.11,10.92q12.72,13.81,25.44,27.64A11.67,11.67,0,0,0,134.08,145.14Zm-67.22-82c-.16-.57-.67-.91-1.08-1.32q-16-16.08-32-32.16c-5.1-5.15-4.58-3.37-4.57-10.83a2.54,2.54,0,0,0-1.44-2.46Q20.44,12,13.21,7.63c-.91-.55-1.54-.62-2.28.25a23.74,23.74,0,0,1-2.7,2.7,1.74,1.74,0,0,0-.35,2.65,132.77,132.77,0,0,1,6.83,11.53c1.7,3.47,3.92,5.07,7.78,4.36,1.94-.35,3.43.56,4.82,1.95C38.86,42.72,50.48,54.31,62,66c.88.88,1.47,1.13,2.32,0a24.53,24.53,0,0,1,2-2C66.56,63.76,66.86,63.55,66.86,63.12ZM96.22,83.71a1.48,1.48,0,0,0-.57-.83c-.61-.58-1.26-1.11-1.82-1.72-.87-1-1.52-1-2.5,0-2.73,2.88-5.6,5.65-8.41,8.46-3,3-3,3,0,6,.66.66,1.14.76,1.83.07,3.63-3.66,7.29-7.3,10.93-11A1.33,1.33,0,0,0,96.22,83.71Z"/><path class="cls-2" d="M94.09,54.13A3,3,0,0,1,97,58.57a7.85,7.85,0,0,1-1.38,1.71Q78,77.91,60.35,95.52a4.22,4.22,0,0,1-3,1.65,3,3,0,0,1-2.81-4.33A6.67,6.67,0,0,1,56,91L91.13,55.88C92,55,92.85,54.09,94.09,54.13Z"/><path class="cls-3" d="M105.68,48.77a3,3,0,1,1-3.11-3.05A3.08,3.08,0,0,1,105.68,48.77Z"/><path class="cls-4" d="M48.94,99.42a3.08,3.08,0,1,1-3,3.12A3.08,3.08,0,0,1,48.94,99.42Z"/><path class="cls-5" d="M134.66,131.18c0,2.57-2.35,4-4.37,3a6.79,6.79,0,0,1-1.62-1.26q-12.58-12.51-25.15-25l-.21-.21c-1.63-1.72-1.81-3.61-.46-4.94s3.23-1.11,4.92.57q12.7,12.61,25.38,25.25A4,4,0,0,1,134.66,131.18Z"/></g></svg>