<svg id="Capa_1" data-name="Capa 1" xmlns="http://www.w3.org/2000/svg" xmlns:xlink="http://www.w3.org/1999/xlink" viewBox="0 0 247.33 220"><defs><style>.cls-1{fill:url(#Degradado_sin_nombre_18);}.cls-2{fill:url(#Degradado_sin_nombre_18-2);}.cls-3{fill:url(#Degradado_sin_nombre_18-3);}.cls-4{fill:url(#Degradado_sin_nombre_18-4);}.cls-5{fill:url(#Degradado_sin_nombre_18-5);}.cls-6{fill:url(#Degradado_sin_nombre_18-6);}.cls-7{fill:url(#Degradado_sin_nombre_18-7);}.cls-8{fill:url(#Degradado_sin_nombre_18-8);}</style><linearGradient id="Degradado_sin_nombre_18" x1="-74.19" y1="-88.57" x2="329.23" y2="258.82" gradientUnits="userSpaceOnUse"><stop offset="0" stop-color="#3fc1ff"/><stop offset="1" stop-color="#005cbf"/></linearGradient><linearGradient id="Degradado_sin_nombre_18-2" x1="-125.11" y1="-29.44" x2="278.32" y2="317.95" xlink:href="#Degradado_sin_nombre_18"/><linearGradient id="Degradado_sin_nombre_18-3" x1="-89.11" y1="-71.25" x2="314.32" y2="276.14" xlink:href="#Degradado_sin_nombre_18"/><linearGradient id="Degradado_sin_nombre_18-4" x1="-147.06" y1="-3.95" x2="256.37" y2="343.44" xlink:href="#Degradado_sin_nombre_18"/><linearGradient id="Degradado_sin_nombre_18-5" x1="-47.78" y1="-119.25" x2="355.65" y2="228.14" xlink:href="#Degradado_sin_nombre_18"/><linearGradient id="Degradado_sin_nombre_18-6" x1="-58.88" y1="-106.35" x2="344.54" y2="241.04" xlink:href="#Degradado_sin_nombre_18"/><linearGradient id="Degradado_sin_nombre_18-7" x1="-65.57" y1="-98.58" x2="337.85" y2="248.81" xlink:href="#Degradado_sin_nombre_18"/><linearGradient id="Degradado_sin_nombre_18-8" x1="-128.1" y1="-25.97" x2="275.33" y2="321.42" xlink:href="#Degradado_sin_nombre_18"/></defs><g id="_59jC8Q" data-name="59jC8Q"><path class="cls-1" d="M247.33,108.87c-1.62,2.86-4.12,3.7-7.31,3.62-5.23-.12-4.57-.65-4.59,4.62,0,7.56,0,15.13,0,22.69,0,2-.77,3.46-2.78,4a3.55,3.55,0,0,1-4-1.39,5.29,5.29,0,0,1-.75-3.47c0-7.8-.09-15.61.06-23.41,0-2.42-.6-3.15-3.09-3.15q-100.92.1-201.83,0c-2.49,0-3.14.75-3.1,3.16.14,7.56.06,15.12.05,22.69a11,11,0,0,1-.2,2.63,3.65,3.65,0,0,1-3.81,3,3.58,3.58,0,0,1-3.63-3,11.94,11.94,0,0,1-.26-2.87c0-7.64-.07-15.29,0-22.93,0-2.12-.65-3-2.77-2.73-.63.08-1.29,0-1.93,0-3.59.32-6.06-1.16-7.35-4.55V85.68c1.4-3.28,3.83-4.83,7.43-4.5.8.07,1.61-.05,2.41,0,1.53.11,2.3-.49,2.17-2.08-.7-8.4,1.33-16.9-1.42-25.28-1.49-4.53-2.31-6.14-7-7A5.38,5.38,0,0,1,0,44.62V32.54c1.09-1.91,2.86-2.45,4.91-2.45H70.6c3.62,0,3.62,0,3.63-3.51,0-2.82,0-5.64,0-8.45C74.29,7.63,81.89,0,92.41,0Q123.69,0,155,0c10.51,0,18.11,7.62,18.14,18.13,0,9.41,0,18.83,0,28.25,0,3.37,0,3.37,3.48,3.37h14q18.35,0,36.71,0c1,0,2.17.3,2.69-1a15.1,15.1,0,0,1,9-8.9c.45-.17.89-.47.8-1.06-.12-.74-.74-.75-1.3-.77-.73,0-1.45,0-2.18,0h-51.2c-3.22,0-5-1.47-5-3.95s1.81-3.92,4.86-3.92q28.86-.06,57.72,0a4.9,4.9,0,0,1,4.67,2.44V44.62c-1.09,1.78-2.91,2.12-4.76,2.42a6,6,0,0,0-5.18,4.47c-1.13,4.05-2.4,8-2,12.42.37,4.63.08,9.32.08,14,0,3.27,0,3.37,3.33,3.25s6.64.15,8.58,3.55ZM123.77,81.19q50.58,0,101.17,0c2.12,0,3-.44,2.95-2.79-.16-6.19-.12-12.4,0-18.59,0-1.9-.59-2.51-2.49-2.5q-24.87.09-49.74,0c-1.79,0-2.44.47-2.69,2.38a17.71,17.71,0,0,1-17.59,15.46q-31.76.06-63.51,0A17.68,17.68,0,0,1,74.24,57.45c0-5.63-.06-11.27,0-16.9,0-1.78-.37-2.61-2.4-2.6-20.77.06-41.53,0-62.3,0-.73,0-1.8-.33-2,.81-.15.93.83,1,1.46,1.32a13.57,13.57,0,0,1,7.63,7.35c.79,2,2,2.34,3.86,2.33,10.46-.08,20.92,0,31.39,0,3.78,0,7.56-.05,11.35,0,2.81.05,4.48,2,4,4.53S65,57.38,62.72,57.38c-13.36,0-26.72,0-40.08-.05-2.12,0-2.8.63-2.76,2.75.12,5.88,0,11.75.05,17.63,0,3.47,0,3.47,3.39,3.47Zm-.19-13.87c10.22,0,20.44-.18,30.65.07,6.46.15,11.21-4,11.24-11,.06-12.47.1-24.94,0-37.41-.07-7.25-4.31-11.32-11.54-11.33q-30.3,0-60.58,0c-7,0-11.35,4-11.44,10.93q-.27,19.07,0,38.13c.09,6.88,4.2,10.63,11,10.64C103.15,67.34,113.36,67.32,123.58,67.32Zm.2,37.52H236c.73,0,1.45,0,2.18,0,1.05,0,1.68-.36,1.68-1.52q0-6.28,0-12.55a1.45,1.45,0,0,0-1.59-1.67c-.88,0-1.77,0-2.66,0H12.1c-.65,0-1.29,0-1.93,0-1.82-.15-2.39.72-2.34,2.45.08,3.3,0,6.6,0,9.9s0,3.43,3.43,3.43Z"/><path class="cls-2" d="M123.43,220H20.78a15.59,15.59,0,0,1-4.31-.36c-2.89-.82-4.42-3-4.45-6.66,0-6,0-12.08,0-18.12q0-19.08,0-38.16c0-4,1.39-6,4.07-5.91s3.84,2,3.84,5.88V208.6c0,3.5,0,3.5,3.38,3.5q33.69,0,67.38,0c3.36,0,3.37,0,3.37-3.49q0-31.77,0-63.53c0-6.44,3.25-10,9.68-10.08q19.92-.19,39.85,0c6.43.06,9.7,3.63,9.7,10.07v63.76c0,3.27,0,3.27,3.35,3.27q33.69,0,67.39,0c3.38,0,3.39,0,3.39-3.48V156.69c0-4,1.36-6,4.05-5.9s3.86,2,3.86,5.89q0,27.66,0,55.31c0,5.87-2.14,8-8,8Zm22-42.35q0-15.69,0-31.37c0-3.36-.09-3.45-3.33-3.45H105.15c-3.08,0-3.23.14-3.23,3.3,0,21,0,42,0,63,0,2.3.67,3.06,3,3q18.7-.15,37.4,0c2.44,0,3.19-.7,3.17-3.14C145.34,198.56,145.41,188.1,145.41,177.65Z"/><path class="cls-3" d="M191.61,198.35c-7.17,0-14.33,0-21.49,0-5.4,0-8.82-3.31-8.85-8.68q-.09-19.18,0-38.38c0-4.74,2.89-7.8,7.63-8.41a25,25,0,0,1,3.13-.15q19.54,0,39.11,0a28.35,28.35,0,0,1,4.32.31,7.43,7.43,0,0,1,6.33,5.85,15.86,15.86,0,0,1,.42,4.07q0,17.63,0,35.24c0,7.16-3,10.15-10.1,10.16Zm.15-47.78c-6.67,0-13.34.06-20,0-2,0-2.62.68-2.61,2.65q.1,17.35,0,34.73c0,1.84.56,2.56,2.48,2.55q20.15-.08,40.28,0c1.92,0,2.48-.7,2.47-2.55q-.09-17.35,0-34.73c0-2-.55-2.68-2.59-2.65C205.11,150.63,198.44,150.57,191.76,150.57Z"/><path class="cls-4" d="M55.55,198.35c-7.08,0-14.16,0-21.24,0-5.74,0-9.14-3.18-9.18-8.88q-.14-18.83,0-37.66c0-6,3.36-9,9.78-9.06,7.64-.09,15.29,0,22.93,0,6.12,0,12.23,0,18.35,0,6.82.05,9.87,3.15,9.88,9.94q0,18,0,36c0,6.63-3.12,9.71-9.77,9.72Zm.16-47.78c-6.75,0-13.51.05-20.26,0-1.9,0-2.5.62-2.49,2.5q.09,17.49,0,35c0,2,.75,2.46,2.56,2.45q20-.08,40,0c2,0,2.65-.67,2.63-2.66q-.1-17.35,0-34.73c0-2.08-.81-2.57-2.71-2.55C68.9,150.62,62.3,150.57,55.71,150.57Z"/><path class="cls-5" d="M132.44,18c4.59,0,9.17,0,13.76,0,5.84.05,8.53,3.93,6.51,9.34-2.08,5.58-4.17,11.15-6.31,16.71-2,5.15-4.74,7-10.25,7.05-6.6,0-13.2,0-19.79,0-5.62,0-9-2.79-10.14-8.37-1.31-6.13-2.64-12.26-3.83-18.42-.33-1.7-1.07-2.36-2.74-2.23A9.71,9.71,0,0,1,97,22a3.56,3.56,0,0,1-3.1-3.75,3.34,3.34,0,0,1,3.18-3.62,27.13,27.13,0,0,1,6.74.07c3.08.49,4.93,2.62,5.6,5.63,1.45,6.59,2.82,13.2,4.21,19.81.65,3.11,1,3.38,4.16,3.38,6,0,11.91-.05,17.86,0A3.29,3.29,0,0,0,139.25,41c1.54-4.32,3.15-8.61,4.87-12.86.81-2,.07-2.32-1.75-2.31-7.8.06-15.61,0-23.42,0-3.81,0-5.82-1.36-5.84-3.92s2.07-4,5.81-4Z"/><path class="cls-6" d="M127.19,57.44a4.09,4.09,0,0,1,4.5-3.73,4,4,0,0,1,4.14,4.07,4.34,4.34,0,0,1-8.64-.34Z"/><path class="cls-7" d="M120.09,57.54a4,4,0,0,1-4.22,4,4.1,4.1,0,0,1-4.38-3.86,4,4,0,0,1,4.23-4C118.23,53.68,120,55.28,120.09,57.54Z"/><path class="cls-8" d="M108.22,181.43c-1.81,0-3.57-.16-4.68-1.87a3.79,3.79,0,0,1,.78-5c1.74-1.47,6-1.49,7.73,0a3.73,3.73,0,0,1,.82,5C111.78,181.24,110,181.44,108.22,181.43Z"/></g></svg>